<svg xmlns="http://www.w3.org/2000/svg" width="290" height="255" viewBox="-10 -20 300 300" style="overflow: visible;">
  <g transform="matrix(0.5692961203977601, 0, 0, 0.5692961203977601, -26.18761719491225, -110.9170481170928)" data-uid="o-2af4fdd954684854b9e25248c7265af5" fill="#5086a1" stroke="none">
    <svg xmlns="http://www.w3.org/2000/svg" version="1.1" id="Calque_1" x="0px" y="0px" viewBox="0 0 595.28 841.89" enable-background="new 0 0 595.28 841.89" width="595.28" height="841.89" data-uid="o-3852495602eb4f89988374d65a2ab428">

      <defs>
        <filter id="glow" x="-30%" y="-30%" width="200%" height="200%" filterUnits="objectBoundingBox">
          <feGaussianBlur stdDeviation="4">
            <animate attributeName="stdDeviation" values="0;25;0" dur="2s" repeatCount="indefinite"/>
          </feGaussianBlur>

          <feMerge>
            <feMergeNode in="blur"/>
            <feMergeNode in="SourceGraphic"/>
          </feMerge>
        </filter>
      </defs>

      <style>
        @keyframes rainbow {
          0%     { fill: #00a98e; }
          1.25%  { fill: #00a996; }
          1.25%  { fill: #00a996; }
          2.5%   { fill: #00a99f; }
          3.75%  { fill: #00a9a7; }
          5%     { fill: #00a9b0; }
          6.25%  { fill: #00a9b8; }
          7.5%   { fill: #00a9c0; }
          8.75%  { fill: #00a8c7; }
          10%    { fill: #00a8cf; }
          11.25% { fill: #00a7d5; }
          12.5%  { fill: #00a6dc; }
          13.75% { fill: #00a6e2; }
          15%    { fill: #00a4e7; }
          16.25% { fill: #00a3ec; }
          17.5%  { fill: #00a2f1; }
          18.75% { fill: #00a0f4; }
          20%    { fill: #009ff7; }
          21.25% { fill: #009dfa; }
          22.5%  { fill: #009bfc; }
          23.75% { fill: #0098fd; }
          25%    { fill: #0096fd; }
          26.25% { fill: #0093fd; }
          27.5%  { fill: #2e90fc; }
          28.75% { fill: #4d8dfa; }
          30%    { fill: #638af8; }
          31.25% { fill: #7587f5; }
          32.5%  { fill: #8583f1; }
          33.75% { fill: #9280ed; }
          35%    { fill: #9f7ce9; }
          36.25% { fill: #aa78e3; }
          37.5%  { fill: #b574dd; }
          38.75% { fill: #be71d7; }
          40%    { fill: #c76dd1; }
          41.25% { fill: #cf69c9; }
          42.5%  { fill: #d566c2; }
          43.75% { fill: #dc63ba; }
          45%    { fill: #e160b3; }
          46.25% { fill: #e65eab; }
          47.5%  { fill: #e95ca2; }
          48.75% { fill: #ed5a9a; }
          50%    { fill: #ef5992; }
          51.25% { fill: #f15989; }
          52.5%  { fill: #f25981; }
          53.75% { fill: #f25a79; }
          55%    { fill: #f25c71; }
          56.25% { fill: #f15e69; }
          57.5%  { fill: #ef6061; }
          58.75% { fill: #ed635a; }
          60%    { fill: #eb6552; }
          61.25% { fill: #e8694b; }
          62.5%  { fill: #e46c44; }
          63.75% { fill: #e06f3d; }
          65%    { fill: #db7336; }
          66.25% { fill: #d77630; }
          67.5%  { fill: #d17a2a; }
          68.75% { fill: #cc7d24; }
          70%    { fill: #c6811e; }
          71.25% { fill: #bf8418; }
          72.5%  { fill: #b98713; }
          73.75% { fill: #b28a0f; }
          75%    { fill: #ab8d0c; }
          76.25% { fill: #a3900b; }
          77.5%  { fill: #9c920d; }
          78.75% { fill: #949510; }
          80%    { fill: #8b9715; }
          81.25% { fill: #83991b; }
          82.5%  { fill: #7a9b21; }
          83.75% { fill: #719d27; }
          85%    { fill: #679e2e; }
          86.25% { fill: #5da035; }
          87.5%  { fill: #51a13c; }
          88.75% { fill: #44a244; }
          90%    { fill: #34a44b; }
          91.25% { fill: #1ba553; }
          92.5%  { fill: #00a65b; }
          93.75% { fill: #00a663; }
          95%    { fill: #00a76c; }
          96.25% { fill: #00a874; }
          97.5%  { fill: #00a87d; }
          98.75% { fill: #00a985; }
          100%   { fill: #00a98e; }
        }

        <!-- g[filter="url(#glow)"] path {
          animation: rainbow 10s linear infinite;
        } -->
      </style>

      <g data-uid="o-260893cd57fa4403a951ba0aa844e36c" filter="url(#glow)">
        <g data-uid="o-6ec6d8a48019492d906c0e3801d6a9a6">
          <g data-uid="o-37a111c11ed9476f8337c606e445f9fd">
            <g data-uid="o-73adac0894e2429b894de2512d0e2aed">
              <path class="st0" d="M499.77 371.71c-19.81 0-36.88 11.71-44.69 28.58h-62.56v41.32h62.56c7.81 16.87 24.88 28.57 44.69 28.57      c27.2 0 49.23-22.04 49.23-49.24C549 393.75 526.96 371.71 499.77 371.71z M454.44 430c-5 0-9.05-4.05-9.05-9.05      c0-5 4.05-9.05 9.05-9.05c5 0 9.05 4.05 9.05 9.05C463.49 425.94 459.44 430 454.44 430z M522.76 434.35l-22.65 13.41      l-22.65-13.41v-26.82l22.65-13.41l22.65 13.41V434.35z" fill="#5086a1" data-uid="o-a449186045f24bc7a6f0bd5fc36a9ca5" stroke="none"/>
            </g>
            <g data-uid="o-37092347ca0c4d0a8c98a370a9a22724">
              <path class="st0" d="M188.14 400.28h-53.27c-7.81-16.87-24.87-28.58-44.69-28.58c-19.42 0-36.16 11.27-44.18 27.61h36.44      l17.14 23.32l-17.14 23.32H47.82c8.57 14.48 24.31 24.23 42.36 24.23c19.82 0 36.88-11.71 44.69-28.57h53.27V400.28z       M139.41 430c-5 0-9.05-4.05-9.05-9.05c0-5 4.05-9.05 9.05-9.05s9.05 4.05 9.05 9.05C148.46 425.94 144.41 430 139.41 430z" fill="#5086a1" data-uid="o-04b70785378143728a00f05576569f72" stroke="none"/>
            </g>
          </g>
        </g>
        <g data-uid="o-3a57da86b91940008c190d143b9d4caf">
          <g data-uid="o-17f8be797d0b4c6f8b1a62111d040b12">
            <path class="st0" d="M433.79 380.24c-2.43 0-4.69-1.53-5.51-3.94c-19.11-56.2-71.85-93.95-131.25-93.95     c-58.27 0-110.69 36.82-130.43 91.64c-1.05 2.91-4.21 4.54-7.18 3.61c-2.96-0.9-4.71-3.95-3.96-6.96l0.01-0.03     c21.58-59.97 78.39-99.89 141.55-99.89c64.38 0 121.55 40.93 142.27 101.84c1.03 3.05-0.59 6.35-3.64 7.39     C435.04 380.14 434.41 380.24 433.79 380.24z" fill="#5086a1" data-uid="o-b3007fb6331b4e74a83e203f60ee9d78" stroke="none"/>
          </g>
          <g data-uid="o-205a022bbcfa4b028aa7d0c74127c9d7">
            <path class="st0" d="M297.04 571.29c-63.16 0-119.98-39.92-141.38-99.32l5.46-2.01l5.65-1.41l0.01 0.03     c19.58 54.24 71.99 91.07 130.26 91.07c59.39 0 112.14-37.76 131.25-93.95c1.04-3.04 4.32-4.68 7.38-3.64     c3.04 1.04 4.67 4.34 3.64 7.39C418.59 530.36 361.42 571.29 297.04 571.29z" fill="#5086a1" data-uid="o-0119532c864346e68606bd4130e07183" stroke="none"/>
          </g>
        </g>
        <g data-uid="o-077cb323d2b54973b57e43e2487704b2">
          <g data-uid="o-525edc8cc2cc4a1a9e2a34cba57a316f">
            <path class="st1" d="M499.5 342.16c-2.01 0-3.97-1.04-5.04-2.91l-23.88-41.35l-30.55 17.64c-2.5 1.45-5.68 0.84-7.48-1.43     c-7.93-10.03-16.97-19.2-26.88-27.24c-2.22-1.81-2.8-4.95-1.37-7.43l17.81-30.86L385.8 227.6l-17.62 30.52     c-1.45 2.51-4.53 3.56-7.2 2.49c-11.9-4.75-24.31-8.17-36.89-10.15c-2.83-0.45-4.92-2.88-4.92-5.75v-35.59h-41.94v35.27     c0 2.89-2.13 5.35-4.99 5.76c-12.65 1.81-25.1 5.06-37.02 9.64c-2.68 0.99-5.7-0.05-7.13-2.53l-17.8-30.83l-36.31 20.97     l17.63 30.55c1.45 2.5 0.84 5.68-1.43 7.47c-10.05 7.94-19.21 16.98-27.23 26.88c-1.8 2.22-4.94 2.81-7.43 1.37l-30.86-17.82     l-23.88 41.35c-1.61 2.78-5.17 3.76-7.95 2.13c-2.79-1.6-3.74-5.17-2.13-7.95L117.5 285c0.77-1.34 2.04-2.32 3.53-2.71     c1.49-0.38 3.07-0.19 4.42 0.59l31.66 18.28c6.68-7.8 14.04-15.07 21.96-21.68L161 248.18c-1.61-2.78-0.65-6.35 2.13-7.95     l46.39-26.79c1.33-0.78 2.93-0.97 4.42-0.59c1.49 0.4 2.76 1.37 3.53 2.71l18.26 31.63c9.71-3.43 19.72-6.03 29.87-7.78v-36.12     c0-3.21 2.6-5.82 5.82-5.82H325c3.21 0 5.82 2.6 5.82 5.82v36.51c10.11 1.87 20.09 4.61 29.77 8.19l18.05-31.26     c0.77-1.34 2.04-2.32 3.53-2.71c1.5-0.37 3.08-0.2 4.42 0.59l46.4 26.79c2.78 1.6 3.74 5.17 2.13 7.95l-18.27 31.66     c7.81 6.69 15.07 14.06 21.67 21.96l31.29-18.06c2.78-1.62 6.34-0.65 7.95 2.13l26.79 46.39c1.61 2.78 0.66 6.34-2.13 7.95     C501.49 341.91 500.49 342.16 499.5 342.16z" fill="#5086a1" data-uid="o-95ed3fba18d04c5cb8f61c28c7dde4ed" stroke="none"/>
          </g>
          <g data-uid="o-ca0e8e3b1db6451e91dcdfedc336b96f">
            <path class="st1" d="M325 644.51h-53.58c-3.21 0-5.82-2.6-5.82-5.82v-36.12c-10.15-1.75-20.16-4.35-29.87-7.78l-18.26 31.63     c-0.77 1.34-2.04 2.32-3.53 2.71c-1.49 0.38-3.08 0.19-4.42-0.59l-46.39-26.79c-2.78-1.6-3.74-5.17-2.13-7.95l18.07-31.29     c-7.91-6.61-15.27-13.88-21.96-21.68l-31.66 18.28c-1.34 0.78-2.93 0.97-4.42 0.59c-1.49-0.4-2.76-1.37-3.53-2.71l-26.79-46.39     c-1.61-2.78-0.66-6.35 2.13-7.95c2.78-1.63 6.34-0.65 7.95 2.13l23.88 41.35l30.86-17.82c2.49-1.43 5.63-0.86 7.43 1.37     c8.02 9.9 17.19 18.94 27.23 26.88c2.26 1.79 2.88 4.97 1.43 7.47l-17.63 30.55l36.31 20.97l17.8-30.83     c1.43-2.49 4.45-3.54 7.13-2.53c11.92 4.58 24.37 7.82 37.02 9.64c2.87 0.41 4.99 2.87 4.99 5.76v35.27h41.94v-35.59     c0-2.87 2.08-5.3 4.92-5.75c12.58-1.98 25-5.39 36.89-10.15c2.67-1.06 5.75-0.02 7.2 2.49l17.62 30.52l36.32-20.97l-17.81-30.86     c-1.43-2.48-0.85-5.62 1.37-7.43c9.91-8.04 18.95-17.2 26.88-27.24c1.8-2.27 4.98-2.88 7.48-1.43l30.55 17.64l23.88-41.35     c1.6-2.78 5.17-3.75 7.95-2.13c2.79 1.6 3.74 5.17 2.13 7.95l-26.79 46.39c-1.61 2.78-5.17 3.75-7.95 2.13l-31.29-18.06     c-6.6 7.91-13.86 15.27-21.67 21.96l18.27 31.66c1.61 2.78 0.65 6.35-2.13 7.95l-46.4 26.79c-1.33 0.77-2.92 0.97-4.42 0.59     c-1.49-0.4-2.76-1.37-3.53-2.71L360.59 594c-9.69 3.57-19.66 6.31-29.77 8.19v36.51C330.82 641.91 328.21 644.51 325 644.51z" fill="#5086a1" data-uid="o-0839cfce14ad499f9e0219f196549a29" stroke="none"/>
          </g>
        </g>
        <g data-uid="o-d17f9c4bf50540d3bec649ec571c84e6">
          <g data-uid="o-ed18b87d3bda4ba5bf25fbab6f730a0f">
            <g data-uid="o-37774d57a6e74ce1ae344b1c34aa9006">
              <path class="st1" d="M343.82 455.55c0 10.1 8.22 18.32 18.32 18.32c10.1 0 18.32-8.22 18.32-18.32v-88.61      c0-0.4 0.01-0.91 0.03-1.48c0.09-3.52 0.28-10.85-3.23-14.45c-1.63-1.68-4.09-2.49-7.51-2.49c-5.58 0-9.85 1.55-13.98 3.05      c-6.7 2.43-15.04 5.47-23.83-3.58c-8.17-8.42-18.36-7.22-24.37-2.55c-10.02 7.79-18.6 8.87-35.33 4.43      c-9.71-2.58-14.12 1.23-20.78 7c-1.42 1.23-2.86 2.47-4.38 3.67c-8.19 6.5-14.11 3.59-18.87 1.26      c-2.92-1.43-5.93-2.91-10.7-3.43c-4.68-0.5-9.25 0.98-12.84 4.2c-3.49 3.13-5.66 7.6-5.66 11.66v74.06      c0 10.1 8.22 18.32 18.32 18.32c10.1 0 18.32-8.22 18.32-18.32v-46.29c0-3.21 2.61-5.82 5.82-5.82c3.21 0 5.82 2.61 5.82 5.82      v46.29v4.59v2.68c0 10.1 8.22 18.32 18.32 18.32c10.1 0 18.32-8.22 18.32-18.32c0-0.12 0.03-0.22 0.03-0.34v-53.22      c0-3.21 2.61-5.82 5.82-5.82c3.21 0 5.82 2.61 5.82 5.82v54.23c0.36 9.79 8.41 17.64 18.28 17.64c9.72 0 17.67-7.62 18.26-17.19      v-54.68c0-3.21 2.61-5.82 5.82-5.82c3.21 0 5.82 2.61 5.82 5.82v53C343.78 455.18 343.82 455.36 343.82 455.55z" fill="#5086a1" data-uid="o-9a53d720274e4a5a99ddb8e854817197" stroke="none"/>
            </g>
            <g data-uid="o-b3e2aea1f58341a3a4fb720e14bd14d2">
              <path class="st1" d="M391.77 459.7c-2.03 14.56-14.53 25.81-29.64 25.81c-9.89 0-18.68-4.82-24.14-12.23      c-5.46 7.41-14.24 12.23-24.14 12.23c-6.36 0-12.26-2.01-17.11-5.41v4.24c0 11.91 9.66 21.57 21.57 21.57h62.08      c11.97 0 21.68-9.71 21.68-21.68V459.7H391.77z" fill="#5086a1" data-uid="o-e73f04b07fca4de197008a2086815055" stroke="none"/>
            </g>
          </g>
          <g data-uid="o-4ed871b55d9c4805a37df53314151f23">
            <g data-uid="o-2fc17aa85f4d4479a5575d4026caa3b7">
              <path class="st1" fill="#5086a1" data-type="circle" data-cx="297.45" data-cy="233.88" data-r="6.28" d="M297.45 233.88m-6.28 0a6.28 6.28 0 1 0 12.56 0a6.28 6.28 0 1 0 -12.56 0" data-uid="o-33c8bc97a4844db092635bc3dae17495" stroke="none"/>
            </g>
            <g data-uid="o-8dbef36535c04700a77dd57b12397c10">
              <path class="st1" fill="#5086a1" data-type="circle" data-cx="389.58" data-cy="263.54" data-r="6.28" d="M389.58 263.54m-6.28 0a6.28 6.28 0 1 0 12.56 0a6.28 6.28 0 1 0 -12.56 0" data-uid="o-697d41798a724f07852be874e9ed00d2" stroke="none"/>
            </g>
            <g data-uid="o-32a748bf951c4d55b3178ccbf7b54a81">
              <path class="st1" fill="#5086a1" data-type="circle" data-cx="207.76" data-cy="263.54" data-r="6.28" d="M207.76 263.54m-6.28 0a6.28 6.28 0 1 0 12.56 0a6.28 6.28 0 1 0 -12.56 0" data-uid="o-12e61ed0d5b74c56ba8482c0030bb5f1" stroke="none"/>
            </g>
            <g data-uid="o-a783328eb5f64544821af3ba15cc70a8">
              <path class="st1" fill="#5086a1" data-type="circle" data-cx="136.1" data-cy="337.58" data-r="6.28" d="M136.1 337.58m-6.28 0a6.28 6.28 0 1 0 12.56 0a6.28 6.28 0 1 0 -12.56 0" data-uid="o-7711f6774f734afbb2cd2e5b5bbb86f5" stroke="none"/>
            </g>
            <g data-uid="o-b4d01ffc4e7f4dee91267d78db9c12a8">
              <path class="st1" fill="#5086a1" data-type="circle" data-cx="455.01" data-cy="337.58" data-r="6.28" d="M455.01 337.58m-6.28 0a6.28 6.28 0 1 0 12.56 0a6.28 6.28 0 1 0 -12.56 0" data-uid="o-e39f857b69c244989ad011e41ee7e9bc" stroke="none"/>
            </g>
          </g>
          <g data-uid="o-01fa5a82aa4e494dbe34ddb8ce30548b">
            <g data-uid="o-4037d706208348b99969af657fe265ab">
              <path class="st1" fill="#5086a1" data-type="circle" data-cx="297.45" data-cy="608.12" data-r="6.28" d="M297.45 608.12m-6.28 0a6.28 6.28 0 1 0 12.56 0a6.28 6.28 0 1 0 -12.56 0" data-uid="o-f536d374f75b4182ad289e42df4577a7" stroke="none"/>
            </g>
            <g data-uid="o-b4fc7472bc194477929cee515f877ac3">
              <path class="st1" fill="#5086a1" data-type="circle" data-cx="389.58" data-cy="578.46" data-r="6.28" d="M389.58 578.46m-6.28 0a6.28 6.28 0 1 0 12.56 0a6.28 6.28 0 1 0 -12.56 0" data-uid="o-32364c74b32f464ba990ca308a1dc064" stroke="none"/>
            </g>
            <g data-uid="o-45233366446547f68a6ef62035ab7892">
              <path class="st1" fill="#5086a1" data-type="circle" data-cx="207.76" data-cy="578.46" data-r="6.28" d="M207.76 578.46m-6.28 0a6.28 6.28 0 1 0 12.56 0a6.28 6.28 0 1 0 -12.56 0" data-uid="o-b4436059a0b54857950390de83d9dddc" stroke="none"/>
            </g>
            <g data-uid="o-c7c08fee414745dc9f148c02c6e77d0f">
              <path class="st1" fill="#5086a1" data-type="circle" data-cx="136.1" data-cy="504.42" data-r="6.28" d="M136.1 504.42m-6.28 0a6.28 6.28 0 1 0 12.56 0a6.28 6.28 0 1 0 -12.56 0" data-uid="o-60594ef239c846d4bcfd90987f72298d" stroke="none"/>
            </g>
            <g data-uid="o-75495ac0cad84631955eed857b340bbf">
              <path class="st1" fill="#5086a1" data-type="circle" data-cx="455.01" data-cy="504.42" data-r="6.28" d="M455.01 504.42m-6.28 0a6.28 6.28 0 1 0 12.56 0a6.28 6.28 0 1 0 -12.56 0" data-uid="o-663298d379f34ab1a4e759638c03ef52" stroke="none"/>
            </g>
          </g>
        </g>
      </g>
    </svg>
  </g>
</svg>