<svg xmlns="http://www.w3.org/2000/svg"
  xmlns:xlink="http://www.w3.org/1999/xlink" style="margin:auto;background:rgba(NaN, NaN, NaN, 0);display:block;z-index:1;position:relative" width="1920" height="1080" preserveAspectRatio="xMidYMid" viewBox="0 0 1920 1080">
  <g transform="translate(960,540) scale(1,1) translate(-960,-540)">
    <defs>
      <path id="path-9mx2wu4yxgw-1" d="M-35 -35L35 -35L35 35L-35 35Z" fill="none" stroke="inherit" stroke-width="5.555555555555555" transform="scale(0.27)"></path>
      <path id="path-9mx2wu4yxgw-2" d="M0 -37A37 37 0 0 1 0 37A37 37 0 0 1 0 -37" fill="none" stroke="inherit" stroke-width="5.555555555555555" transform="scale(0.27)"></path>
      <path id="path-9mx2wu4yxgw-3" d="M0 -34.641L40 34.641L-40 34.641Z" fill="none" stroke="inherit" stroke-width="5.555555555555555" transform="scale(0.27)"></path>
    </defs>
    <path id="path0" d="M 46.59799555801685 833.3078963974712
c 0 30.461251955834143 -7.453285053023247 8.749508540505552 -16.2027935935288 8.749508540505552
S 14.192408370959253 863.7691483533054 14.192408370959253 833.3078963974712
s 7.453285053023247 -8.749508540505552 16.2027935935288 -8.749508540505552
S 46.59799555801685 802.846644441637 46.59799555801685 833.3078963974712
z" fill="none" stroke="none"></path>
    <use xlink:href="#path-9mx2wu4yxgw-3" x="0" y="0" stroke="#0b25d5">
      <animateMotion begin="-2.6976267931579843s" dur="6.9930069930069925s" keyPoints="1;0" keyTimes="0;1" repeatCount="indefinite" calcMode="linear">
        <mpath xlink:href="#path0"></mpath>
      </animateMotion>
    </use>
    <path id="path1" d="M 64.05450437144198 555.7770448291014
c 0 23.76492277986574 -5.8148215312437435 6.826094841025265 -12.64091637226901 6.826094841025265
S 38.772671626903964 579.5419676089672 38.772671626903964 555.7770448291014
s 5.8148215312437435 -6.826094841025265 12.64091637226901 -6.826094841025265
S 64.05450437144198 532.0121220492357 64.05450437144198 555.7770448291014
z" fill="none" stroke="none"></path>
    <use xlink:href="#path-9mx2wu4yxgw-1" x="0" y="0" stroke="#ddeeff">
      <animateMotion begin="-2.9078163426929255s" dur="6.9930069930069925s" keyPoints="1;0" keyTimes="0;1" repeatCount="indefinite" calcMode="linear">
        <mpath xlink:href="#path1"></mpath>
      </animateMotion>
    </use>
    <path id="path2" d="M 93.43479152481015 788.1802947934611
c 0 48.65900393061303 -11.905926493660635 13.976522405601617 -25.88244889926225 13.976522405601617
S 41.66989372628564 836.8392987240742 41.66989372628564 788.1802947934611
s 11.905926493660635 -13.976522405601617 25.88244889926225 -13.976522405601617
S 93.43479152481015 739.5212908628481 93.43479152481015 788.1802947934611
z" fill="none" stroke="none"></path>
    <use xlink:href="#path-9mx2wu4yxgw-1" x="0" y="0" stroke="#bbddff">
      <animateMotion begin="-5.628796252245773s" dur="6.9930069930069925s" keyPoints="0;1" keyTimes="0;1" repeatCount="indefinite" calcMode="linear">
        <mpath xlink:href="#path2"></mpath>
      </animateMotion>
    </use>
    <path id="path3" d="M 126.38427118262116 943.6698522869258
c 0 54.650184904910525 -13.371853753329168 15.697393536516852 -29.06924728984602 15.697393536516852
S 68.24577660292913 998.3200371918363 68.24577660292913 943.6698522869258
s 13.371853753329168 -15.697393536516852 29.06924728984602 -15.697393536516852
S 126.38427118262116 889.0196673820153 126.38427118262116 943.6698522869258
z" fill="none" stroke="none"></path>
    <use xlink:href="#path-9mx2wu4yxgw-1" x="0" y="0" stroke="#bbddff">
      <animateMotion begin="-4.264590414742251s" dur="6.9930069930069925s" keyPoints="1;0" keyTimes="0;1" repeatCount="indefinite" calcMode="linear">
        <mpath xlink:href="#path3"></mpath>
      </animateMotion>
    </use>
    <path id="path4" d="M 126.89112651486508 853.6408765231768
c 0 50.027612824802496 -12.24079888266444 14.369633470953909 -26.610432353618346 14.369633470953909
S 73.67026180762838 903.6684893479793 73.67026180762838 853.6408765231768
s 12.24079888266444 -14.369633470953909 26.610432353618346 -14.369633470953909
S 126.89112651486508 803.6132636983742 126.89112651486508 853.6408765231768
z" fill="none" stroke="none"></path>
    <use xlink:href="#path-9mx2wu4yxgw-3" x="0" y="0" stroke="#bbddff">
      <animateMotion begin="-2.4807108828170352s" dur="6.9930069930069925s" keyPoints="1;0" keyTimes="0;1" repeatCount="indefinite" calcMode="linear">
        <mpath xlink:href="#path4"></mpath>
      </animateMotion>
    </use>
    <path id="path5" d="M 128.98191073732482 664.7209952371671
c 0 22.854309140145094 -5.592011810886565 6.56453560408423 -12.156547414970795 6.56453560408423
S 104.66881590738325 687.5753043773122 104.66881590738325 664.7209952371671
s 5.592011810886565 -6.56453560408423 12.156547414970795 -6.56453560408423
S 128.98191073732482 641.866686097022 128.98191073732482 664.7209952371671
z" fill="none" stroke="none"></path>
    <use xlink:href="#path-9mx2wu4yxgw-3" x="0" y="0" stroke="#0b25d5">
      <animateMotion begin="-3.4303251936186756s" dur="6.9930069930069925s" keyPoints="1;0" keyTimes="0;1" repeatCount="indefinite" calcMode="linear">
        <mpath xlink:href="#path5"></mpath>
      </animateMotion>
    </use>
    <path id="path6" d="M 147.39465787405095 661.623403677083
c 0 25.761941486425133 -6.303453767955085 7.399706597164666 -13.70316036511975 7.399706597164666
S 119.98833714381146 687.3853451635082 119.98833714381146 661.623403677083
s 6.303453767955085 -7.399706597164666 13.70316036511975 -7.399706597164666
S 147.39465787405095 635.8614621906579 147.39465787405095 661.623403677083
z" fill="none" stroke="none"></path>
    <use xlink:href="#path-9mx2wu4yxgw-1" x="0" y="0" stroke="#0b25d5">
      <animateMotion begin="-5.579584523448685s" dur="6.9930069930069925s" keyPoints="1;0" keyTimes="0;1" repeatCount="indefinite" calcMode="linear">
        <mpath xlink:href="#path6"></mpath>
      </animateMotion>
    </use>
    <path id="path7" d="M 182.22400041381684 489.75174026284293
c 0 25.194420833878265 -6.164592331693617 7.236695345901205 -13.401287677594823 7.236695345901205
S 155.42142505862716 514.9461610967212 155.42142505862716 489.75174026284293
s 6.164592331693617 -7.236695345901205 13.401287677594823 -7.236695345901205
S 182.22400041381684 464.55731942896466 182.22400041381684 489.75174026284293
z" fill="none" stroke="none"></path>
    <use xlink:href="#path-9mx2wu4yxgw-3" x="0" y="0" stroke="#ddeeff">
      <animateMotion begin="-6.038397583738777s" dur="6.9930069930069925s" keyPoints="0;1" keyTimes="0;1" repeatCount="indefinite" calcMode="linear">
        <mpath xlink:href="#path7"></mpath>
      </animateMotion>
    </use>
    <path id="path8" d="M 193.7789256318264 771.9646355387454
c 0 23.61654194079548 -5.778515581258468 6.78347481278168 -12.561990394040148 6.78347481278168
S 168.6549448437461 795.5811774795409 168.6549448437461 771.9646355387454
s 5.778515581258468 -6.78347481278168 12.561990394040148 -6.78347481278168
S 193.7789256318264 748.3480935979499 193.7789256318264 771.9646355387454
z" fill="none" stroke="none"></path>
    <use xlink:href="#path-9mx2wu4yxgw-1" x="0" y="0" stroke="#ddeeff">
      <animateMotion begin="-3.053576035223479s" dur="6.9930069930069925s" keyPoints="0;1" keyTimes="0;1" repeatCount="indefinite" calcMode="linear">
        <mpath xlink:href="#path8"></mpath>
      </animateMotion>
    </use>
    <path id="path9" d="M 206.6882908802653 645.9441329086554
c 0 23.560470259768906 -5.764795914624306 6.767369117167664 -12.53216503179197 6.767369117167664
S 181.62396081668135 669.5046031684243 181.62396081668135 645.9441329086554
s 5.764795914624306 -6.767369117167664 12.53216503179197 -6.767369117167664
S 206.6882908802653 622.3836626488866 206.6882908802653 645.9441329086554
z" fill="none" stroke="none"></path>
    <use xlink:href="#path-9mx2wu4yxgw-1" x="0" y="0" stroke="#bbddff">
      <animateMotion begin="-2.388367122840326s" dur="6.9930069930069925s" keyPoints="1;0" keyTimes="0;1" repeatCount="indefinite" calcMode="linear">
        <mpath xlink:href="#path9"></mpath>
      </animateMotion>
    </use>
    <path id="path10" d="M 250.43306134807702 235.73404500828698
c 0 63.795190582121165 -15.609461525412623 18.324150486353954 -33.93361201176658 18.324150486353954
S 182.56583732454388 299.5292355904081 182.56583732454388 235.73404500828698
s 15.609461525412623 -18.324150486353954 33.93361201176658 -18.324150486353954
S 250.43306134807702 171.93885442616582 250.43306134807702 235.73404500828698
z" fill="none" stroke="none"></path>
    <use xlink:href="#path-9mx2wu4yxgw-3" x="0" y="0" stroke="#0b25d5">
      <animateMotion begin="-0.2258032037711289s" dur="6.9930069930069925s" keyPoints="1;0" keyTimes="0;1" repeatCount="indefinite" calcMode="linear">
        <mpath xlink:href="#path10"></mpath>
      </animateMotion>
    </use>
    <path id="path11" d="M 247.83705615198693 845.7947044418944
c 0 38.83995332752706 -9.50339283545875 11.15615680684288 -20.659549642301627 11.15615680684288
S 206.51795686738365 884.6346577694214 206.51795686738365 845.7947044418944
s 9.50339283545875 -11.15615680684288 20.659549642301627 -11.15615680684288
S 247.83705615198693 806.9547511143674 247.83705615198693 845.7947044418944
z" fill="none" stroke="none"></path>
    <use xlink:href="#path-9mx2wu4yxgw-2" x="0" y="0" stroke="#ddeeff">
      <animateMotion begin="-0.19865451196504197s" dur="6.9930069930069925s" keyPoints="0;1" keyTimes="0;1" repeatCount="indefinite" calcMode="linear">
        <mpath xlink:href="#path11"></mpath>
      </animateMotion>
    </use>
    <path id="path12" d="M 261.6522194500092 225.54600753566007
c 0 22.959850295418292 -5.617835710581071 6.594850616769084 -12.212686327350156 6.594850616769084
S 237.22684679530892 248.50585783107834 237.22684679530892 225.54600753566007
s 5.617835710581071 -6.594850616769084 12.212686327350156 -6.594850616769084
S 261.6522194500092 202.5861572402418 261.6522194500092 225.54600753566007
z" fill="none" stroke="none"></path>
    <use xlink:href="#path-9mx2wu4yxgw-1" x="0" y="0" stroke="#ddeeff">
      <animateMotion begin="-3.2227164780347137s" dur="6.9930069930069925s" keyPoints="1;0" keyTimes="0;1" repeatCount="indefinite" calcMode="linear">
        <mpath xlink:href="#path12"></mpath>
      </animateMotion>
    </use>
    <path id="path13" d="M 299.65759604952166 242.75582040771621
c 0 36.23561789161483 -8.866161824544054 10.408103011421282 -19.274264835965337 10.408103011421282
S 261.10906637759103 278.99143829933104 261.10906637759103 242.75582040771621
s 8.866161824544054 -10.408103011421282 19.274264835965337 -10.408103011421282
S 299.65759604952166 206.5202025161014 299.65759604952166 242.75582040771621
z" fill="none" stroke="none"></path>
    <use xlink:href="#path-9mx2wu4yxgw-1" x="0" y="0" stroke="#bbddff">
      <animateMotion begin="-2.081217549212979s" dur="6.9930069930069925s" keyPoints="0;1" keyTimes="0;1" repeatCount="indefinite" calcMode="linear">
        <mpath xlink:href="#path13"></mpath>
      </animateMotion>
    </use>
    <path id="path14" d="M 324.10381067143334 463.29204302304294
c 0 43.796231465624274 -10.716099188397429 12.579768612466548 -23.295867800863977 12.579768612466548
S 277.5120750697054 507.0882744886672 277.5120750697054 463.29204302304294
s 10.716099188397429 -12.579768612466548 23.295867800863977 -12.579768612466548
S 324.10381067143334 419.4958115574187 324.10381067143334 463.29204302304294
z" fill="none" stroke="none"></path>
    <use xlink:href="#path-9mx2wu4yxgw-2" x="0" y="0" stroke="#0b25d5">
      <animateMotion begin="-0.4469605023499737s" dur="6.9930069930069925s" keyPoints="0;1" keyTimes="0;1" repeatCount="indefinite" calcMode="linear">
        <mpath xlink:href="#path14"></mpath>
      </animateMotion>
    </use>
    <path id="path15" d="M 322.06694226075643 175.87910592428992
c 0 29.37818853904741 -7.18828017444777 8.438415856960427 -15.626696031408196 8.438415856960427
S 290.81355019794006 205.25729446333733 290.81355019794006 175.87910592428992
s 7.18828017444777 -8.438415856960427 15.626696031408196 -8.438415856960427
S 322.06694226075643 146.5009173852425 322.06694226075643 175.87910592428992
z" fill="none" stroke="none"></path>
    <use xlink:href="#path-9mx2wu4yxgw-2" x="0" y="0" stroke="#bbddff">
      <animateMotion begin="-1.367673766328945s" dur="6.9930069930069925s" keyPoints="1;0" keyTimes="0;1" repeatCount="indefinite" calcMode="linear">
        <mpath xlink:href="#path15"></mpath>
      </animateMotion>
    </use>
    <path id="path16" d="M 352.4219550106733 589.2045281250722
c 0 30.368757373410606 -7.4306533998770625 8.72294094768177 -16.153594347558833 8.72294094768177
S 320.1147663155556 619.5732854984828 320.1147663155556 589.2045281250722
s 7.4306533998770625 -8.72294094768177 16.153594347558833 -8.72294094768177
S 352.4219550106733 558.8357707516616 352.4219550106733 589.2045281250722
z" fill="none" stroke="none"></path>
    <use xlink:href="#path-9mx2wu4yxgw-2" x="0" y="0" stroke="#0b25d5">
      <animateMotion begin="-6.359944251707215s" dur="6.9930069930069925s" keyPoints="1;0" keyTimes="0;1" repeatCount="indefinite" calcMode="linear">
        <mpath xlink:href="#path16"></mpath>
      </animateMotion>
    </use>
    <path id="path17" d="M 377.6197163294485 281.98220846990796
c 0 48.08223504224725 -11.764802191188155 13.810854746177402 -25.575656937365558 13.810854746177402
S 326.46840245471736 330.0644435121552 326.46840245471736 281.98220846990796
s 11.764802191188155 -13.810854746177402 25.575656937365558 -13.810854746177402
S 377.6197163294485 233.8999734276607 377.6197163294485 281.98220846990796
z" fill="none" stroke="none"></path>
    <use xlink:href="#path-9mx2wu4yxgw-2" x="0" y="0" stroke="#bbddff">
      <animateMotion begin="-0.17797463617959222s" dur="6.9930069930069925s" keyPoints="0;1" keyTimes="0;1" repeatCount="indefinite" calcMode="linear">
        <mpath xlink:href="#path17"></mpath>
      </animateMotion>
    </use>
    <path id="path18" d="M 395.34362735953454 196.2767603082005
c 0 49.20541458037718 -12.039622716475266 14.13347014542749 -26.173092861902756 14.13347014542749
S 342.997441635729 245.48217488857767 342.997441635729 196.2767603082005
s 12.039622716475266 -14.13347014542749 26.173092861902756 -14.13347014542749
S 395.34362735953454 147.0713457278233 395.34362735953454 196.2767603082005
z" fill="none" stroke="none"></path>
    <use xlink:href="#path-9mx2wu4yxgw-3" x="0" y="0" stroke="#bbddff">
      <animateMotion begin="-0.9280546956257716s" dur="6.9930069930069925s" keyPoints="1;0" keyTimes="0;1" repeatCount="indefinite" calcMode="linear">
        <mpath xlink:href="#path18"></mpath>
      </animateMotion>
    </use>
    <path id="path19" d="M 416.211314616146 208.05379702920385
c 0 51.21926096971787 -12.532372364930968 14.711915384918964 -27.24428774984993 14.711915384918964
S 361.7227391164461 259.27305799892173 361.7227391164461 208.05379702920385
s 12.532372364930968 -14.711915384918964 27.24428774984993 -14.711915384918964
S 416.211314616146 156.83453605948597 416.211314616146 208.05379702920385
z" fill="none" stroke="none"></path>
    <use xlink:href="#path-9mx2wu4yxgw-3" x="0" y="0" stroke="#0b25d5">
      <animateMotion begin="-6.3145818226610215s" dur="6.9930069930069925s" keyPoints="0;1" keyTimes="0;1" repeatCount="indefinite" calcMode="linear">
        <mpath xlink:href="#path19"></mpath>
      </animateMotion>
    </use>
    <path id="path20" d="M 435.32355181515777 445.91000161020884
c 0 43.56189469883123 -10.65876146886296 12.512459115621736 -23.171220584484693 12.512459115621736
S 388.9811106461884 489.47189630904006 388.9811106461884 445.91000161020884
s 10.65876146886296 -12.512459115621736 23.171220584484693 -12.512459115621736
S 435.32355181515777 402.3481069113776 435.32355181515777 445.91000161020884
z" fill="none" stroke="none"></path>
    <use xlink:href="#path-9mx2wu4yxgw-3" x="0" y="0" stroke="#bbddff">
      <animateMotion begin="-0.9814075690821443s" dur="6.9930069930069925s" keyPoints="0;1" keyTimes="0;1" repeatCount="indefinite" calcMode="linear">
        <mpath xlink:href="#path20"></mpath>
      </animateMotion>
    </use>
    <path id="path21" d="M 450.77753506706443 993.0042408923291
c 0 47.3894623805584 -11.595293986732372 13.611866853990179 -25.20716084072255 13.611866853990179
S 400.3632133856193 1040.3937032728875 400.3632133856193 993.0042408923291
s 11.595293986732372 -13.611866853990179 25.20716084072255 -13.611866853990179
S 450.77753506706443 945.6147785117707 450.77753506706443 993.0042408923291
z" fill="none" stroke="none"></path>
    <use xlink:href="#path-9mx2wu4yxgw-3" x="0" y="0" stroke="#ddeeff">
      <animateMotion begin="-5.434666894284314s" dur="6.9930069930069925s" keyPoints="1;0" keyTimes="0;1" repeatCount="indefinite" calcMode="linear">
        <mpath xlink:href="#path21"></mpath>
      </animateMotion>
    </use>
    <path id="path22" d="M 470.7128395194376 641.1105419071735
c 0 38.66927007324062 -9.461629911537596 11.10713076571805 -20.568760677255646 11.10713076571805
S 429.57531816492633 679.779811980414 429.57531816492633 641.1105419071735
s 9.461629911537596 -11.10713076571805 20.568760677255646 -11.10713076571805
S 470.7128395194376 602.4412718339329 470.7128395194376 641.1105419071735
z" fill="none" stroke="none"></path>
    <use xlink:href="#path-9mx2wu4yxgw-1" x="0" y="0" stroke="#bbddff">
      <animateMotion begin="-0.4805212271475753s" dur="6.9930069930069925s" keyPoints="0;1" keyTimes="0;1" repeatCount="indefinite" calcMode="linear">
        <mpath xlink:href="#path22"></mpath>
      </animateMotion>
    </use>
    <path id="path23" d="M 486.7148495429024 1052.4829348994786
c 0 48.572495154154296 -11.88475945261222 13.951674140023043 -25.836433592635263 13.951674140023043
S 435.04198235763187 1101.0554300536328 435.04198235763187 1052.4829348994786
s 11.88475945261222 -13.951674140023043 25.836433592635263 -13.951674140023043
S 486.7148495429024 1003.9104397453243 486.7148495429024 1052.4829348994786
z" fill="none" stroke="none"></path>
    <use xlink:href="#path-9mx2wu4yxgw-1" x="0" y="0" stroke="#0b25d5">
      <animateMotion begin="-2.7881956455052683s" dur="6.9930069930069925s" keyPoints="1;0" keyTimes="0;1" repeatCount="indefinite" calcMode="linear">
        <mpath xlink:href="#path23"></mpath>
      </animateMotion>
    </use>
    <path id="path24" d="M 501.2949892939829 972.0634655620654
c 0 29.985137666015074 -7.336789003386666 8.61275230832348 -15.949541311710146 8.61275230832348
S 469.39590667056257 1002.0486032280804 469.39590667056257 972.0634655620654
s 7.336789003386666 -8.61275230832348 15.949541311710146 -8.61275230832348
S 501.2949892939829 942.0783278960504 501.2949892939829 972.0634655620654
z" fill="none" stroke="none"></path>
    <use xlink:href="#path-9mx2wu4yxgw-2" x="0" y="0" stroke="#bbddff">
      <animateMotion begin="-1.2372391340049902s" dur="6.9930069930069925s" keyPoints="0;1" keyTimes="0;1" repeatCount="indefinite" calcMode="linear">
        <mpath xlink:href="#path24"></mpath>
      </animateMotion>
    </use>
    <path id="path25" d="M 529.8057456538762 972.1605799363588
c 0 55.51097833240424 -13.582473421758484 15.944642712499093 -29.527116134257575 15.944642712499093
S 470.7515133853611 1027.671558268763 470.7515133853611 972.1605799363588
s 13.582473421758484 -15.944642712499093 29.527116134257575 -15.944642712499093
S 529.8057456538762 916.6496016039546 529.8057456538762 972.1605799363588
z" fill="none" stroke="none"></path>
    <use xlink:href="#path-9mx2wu4yxgw-2" x="0" y="0" stroke="#0b25d5">
      <animateMotion begin="-2.344572882284578s" dur="6.9930069930069925s" keyPoints="1;0" keyTimes="0;1" repeatCount="indefinite" calcMode="linear">
        <mpath xlink:href="#path25"></mpath>
      </animateMotion>
    </use>
    <path id="path26" d="M 540.935276803288 831.3849349814849
c 0 43.85187710657313 -10.729714611182786 12.595751934866751 -23.325466546049537 12.595751934866751
S 494.284343711189 875.2368120880581 494.284343711189 831.3849349814849
s 10.729714611182786 -12.595751934866751 23.325466546049537 -12.595751934866751
S 540.935276803288 787.5330578749117 540.935276803288 831.3849349814849
z" fill="none" stroke="none"></path>
    <use xlink:href="#path-9mx2wu4yxgw-1" x="0" y="0" stroke="#0b25d5">
      <animateMotion begin="-2.9614858484976807s" dur="6.9930069930069925s" keyPoints="1;0" keyTimes="0;1" repeatCount="indefinite" calcMode="linear">
        <mpath xlink:href="#path26"></mpath>
      </animateMotion>
    </use>
    <path id="path27" d="M 557.0103763301131 511.34021895916237
c 0 57.7159557331676 -14.121989168753771 16.57798728505878 -30.69997645381255 16.57798728505878
S 495.61042342248805 569.0561746923299 495.61042342248805 511.34021895916237
s 14.121989168753771 -16.57798728505878 30.69997645381255 -16.57798728505878
S 557.0103763301131 453.62426322599475 557.0103763301131 511.34021895916237
z" fill="none" stroke="none"></path>
    <use xlink:href="#path-9mx2wu4yxgw-1" x="0" y="0" stroke="#0b25d5">
      <animateMotion begin="-0.4088318913398294s" dur="6.9930069930069925s" keyPoints="0;1" keyTimes="0;1" repeatCount="indefinite" calcMode="linear">
        <mpath xlink:href="#path27"></mpath>
      </animateMotion>
    </use>
    <path id="path28" d="M 582.7704187456168 355.1644019069173
c 0 51.985526093736645 -12.719862767616412 14.9320128141584 -27.65187558177481 14.9320128141584
S 527.4666675820672 407.149928000654 527.4666675820672 355.1644019069173
s 12.719862767616412 -14.9320128141584 27.65187558177481 -14.9320128141584
S 582.7704187456168 303.17887581318064 582.7704187456168 355.1644019069173
z" fill="none" stroke="none"></path>
    <use xlink:href="#path-9mx2wu4yxgw-2" x="0" y="0" stroke="#bbddff">
      <animateMotion begin="-6.308587558084738s" dur="6.9930069930069925s" keyPoints="0;1" keyTimes="0;1" repeatCount="indefinite" calcMode="linear">
        <mpath xlink:href="#path28"></mpath>
      </animateMotion>
    </use>
    <path id="path29" d="M 588.7437881481978 685.7252412185453
c 0 40.141557636002226 -9.821870485404798 11.530021874170853 -21.35189235957565 11.530021874170853
S 546.0400034290465 725.8667988545475 546.0400034290465 685.7252412185453
s 9.821870485404798 -11.530021874170853 21.35189235957565 -11.530021874170853
S 588.7437881481978 645.5836835825431 588.7437881481978 685.7252412185453
z" fill="none" stroke="none"></path>
    <use xlink:href="#path-9mx2wu4yxgw-2" x="0" y="0" stroke="#0b25d5">
      <animateMotion begin="-5.704805094168084s" dur="6.9930069930069925s" keyPoints="1;0" keyTimes="0;1" repeatCount="indefinite" calcMode="linear">
        <mpath xlink:href="#path29"></mpath>
      </animateMotion>
    </use>
    <path id="path30" d="M 605.7057150576525 433.0851526741579
c 0 25.412287276565618 -6.217900078308608 7.299274004970976 -13.517174083279585 7.299274004970976
S 578.6713668910934 458.4974399507235 578.6713668910934 433.0851526741579
s 6.217900078308608 -7.299274004970976 13.517174083279585 -7.299274004970976
S 605.7057150576525 407.67286539759226 605.7057150576525 433.0851526741579
z" fill="none" stroke="none"></path>
    <use xlink:href="#path-9mx2wu4yxgw-3" x="0" y="0" stroke="#0b25d5">
      <animateMotion begin="-3.5104724271748733s" dur="6.9930069930069925s" keyPoints="0;1" keyTimes="0;1" repeatCount="indefinite" calcMode="linear">
        <mpath xlink:href="#path30"></mpath>
      </animateMotion>
    </use>
    <path id="path31" d="M 629.8677128623511 235.875034760698
c 0 21.61230107922238 -5.288116221511858 6.207788607861748 -11.495904829373607 6.207788607861748
S 606.875903203604 257.4873358399204 606.875903203604 235.875034760698
s 5.288116221511858 -6.207788607861748 11.495904829373607 -6.207788607861748
S 629.8677128623511 214.2627336814756 629.8677128623511 235.875034760698
z" fill="none" stroke="none"></path>
    <use xlink:href="#path-9mx2wu4yxgw-3" x="0" y="0" stroke="#0b25d5">
      <animateMotion begin="-5.618270907482102s" dur="6.9930069930069925s" keyPoints="0;1" keyTimes="0;1" repeatCount="indefinite" calcMode="linear">
        <mpath xlink:href="#path31"></mpath>
      </animateMotion>
    </use>
    <path id="path32" d="M 645.7676535691088 738.1694738276507
c 0 20.323855182150073 -4.972858182866506 5.837703084234596 -10.810561267101102 5.837703084234596
S 624.1465310349066 758.4933290098007 624.1465310349066 738.1694738276507
s 4.972858182866506 -5.837703084234596 10.810561267101102 -5.837703084234596
S 645.7676535691088 717.8456186455006 645.7676535691088 738.1694738276507
z" fill="none" stroke="none"></path>
    <use xlink:href="#path-9mx2wu4yxgw-2" x="0" y="0" stroke="#0b25d5">
      <animateMotion begin="-2.349342953891846s" dur="6.9930069930069925s" keyPoints="1;0" keyTimes="0;1" repeatCount="indefinite" calcMode="linear">
        <mpath xlink:href="#path32"></mpath>
      </animateMotion>
    </use>
    <path id="path33" d="M 670.5341165299913 846.3256965002848
c 0 31.901515154615925 -7.805689878257088 9.163201161432234 -16.96889103968932 9.163201161432234
S 636.5963344506126 878.2272116549008 636.5963344506126 846.3256965002848
s 7.805689878257088 -9.163201161432234 16.96889103968932 -9.163201161432234
S 670.5341165299913 814.4241813456689 670.5341165299913 846.3256965002848
z" fill="none" stroke="none"></path>
    <use xlink:href="#path-9mx2wu4yxgw-3" x="0" y="0" stroke="#ddeeff">
      <animateMotion begin="-5.552384601564662s" dur="6.9930069930069925s" keyPoints="0;1" keyTimes="0;1" repeatCount="indefinite" calcMode="linear">
        <mpath xlink:href="#path33"></mpath>
      </animateMotion>
    </use>
    <path id="path34" d="M 673.7887158189164 930.6364981388781
c 0 27.287388286720347 -6.676701389303914 7.837866848313291 -14.514568237617205 7.837866848313291
S 644.7595793436819 957.9238864255984 644.7595793436819 930.6364981388781
s 6.676701389303914 -7.837866848313291 14.514568237617205 -7.837866848313291
S 673.7887158189164 903.3491098521578 673.7887158189164 930.6364981388781
z" fill="none" stroke="none"></path>
    <use xlink:href="#path-9mx2wu4yxgw-1" x="0" y="0" stroke="#bbddff">
      <animateMotion begin="-4.430923205649077s" dur="6.9930069930069925s" keyPoints="0;1" keyTimes="0;1" repeatCount="indefinite" calcMode="linear">
        <mpath xlink:href="#path34"></mpath>
      </animateMotion>
    </use>
    <path id="path35" d="M 700.8397836822937 574.29422569793
c 0 38.17639780656238 -9.341033505861006 10.965561072097705 -20.30659457795871 10.965561072097705
S 660.2265945263764 612.4706235044923 660.2265945263764 574.29422569793
s 9.341033505861006 -10.965561072097705 20.30659457795871 -10.965561072097705
S 700.8397836822937 536.1178278913676 700.8397836822937 574.29422569793
z" fill="none" stroke="none"></path>
    <use xlink:href="#path-9mx2wu4yxgw-2" x="0" y="0" stroke="#bbddff">
      <animateMotion begin="-3.526235981346574s" dur="6.9930069930069925s" keyPoints="1;0" keyTimes="0;1" repeatCount="indefinite" calcMode="linear">
        <mpath xlink:href="#path35"></mpath>
      </animateMotion>
    </use>
    <path id="path36" d="M 734.6268929512404 308.64644658031386
c 0 47.157658394987756 -11.53857599026296 13.545284858134782 -25.08386084839774 13.545284858134782
S 684.4591712544449 355.80410497530164 684.4591712544449 308.64644658031386
s 11.53857599026296 -13.545284858134782 25.08386084839774 -13.545284858134782
S 734.6268929512404 261.4887881853261 734.6268929512404 308.64644658031386
z" fill="none" stroke="none"></path>
    <use xlink:href="#path-9mx2wu4yxgw-1" x="0" y="0" stroke="#ddeeff">
      <animateMotion begin="-3.3292085529199054s" dur="6.9930069930069925s" keyPoints="1;0" keyTimes="0;1" repeatCount="indefinite" calcMode="linear">
        <mpath xlink:href="#path36"></mpath>
      </animateMotion>
    </use>
    <path id="path37" d="M 733.1915520183818 1042.4470302844347
c 0 26.49887846195307 -6.483768134307666 7.611379983752478 -14.095148118060143 7.611379983752478
S 705.0012557822615 1068.9459087463879 705.0012557822615 1042.4470302844347
s 6.483768134307666 -7.611379983752478 14.095148118060143 -7.611379983752478
S 733.1915520183818 1015.9481518224817 733.1915520183818 1042.4470302844347
z" fill="none" stroke="none"></path>
    <use xlink:href="#path-9mx2wu4yxgw-2" x="0" y="0" stroke="#ddeeff">
      <animateMotion begin="-5.1512581812658595s" dur="6.9930069930069925s" keyPoints="0;1" keyTimes="0;1" repeatCount="indefinite" calcMode="linear">
        <mpath xlink:href="#path37"></mpath>
      </animateMotion>
    </use>
    <path id="path38" d="M 776.1588055286151 375.91201552485427
c 0 55.02344542367201 -13.463183454728256 15.804606664246217 -29.267790118974474 15.804606664246217
S 717.623225290666 430.93546094852627 717.623225290666 375.91201552485427
s 13.463183454728256 -15.804606664246217 29.267790118974474 -15.804606664246217
S 776.1588055286151 320.88857010118227 776.1588055286151 375.91201552485427
z" fill="none" stroke="none"></path>
    <use xlink:href="#path-9mx2wu4yxgw-1" x="0" y="0" stroke="#0b25d5">
      <animateMotion begin="-5.273948154215021s" dur="6.9930069930069925s" keyPoints="0;1" keyTimes="0;1" repeatCount="indefinite" calcMode="linear">
        <mpath xlink:href="#path38"></mpath>
      </animateMotion>
    </use>
    <path id="path39" d="M 791.3680269921213 131.9818040005281
c 0 47.570212626750376 -11.639520110800621 13.663784477896385 -25.303304588697006 13.663784477896385
S 740.7614178147273 179.55201662727848 740.7614178147273 131.9818040005281
s 11.639520110800621 -13.663784477896385 25.303304588697006 -13.663784477896385
S 791.3680269921213 84.41159137377771 791.3680269921213 131.9818040005281
z" fill="none" stroke="none"></path>
    <use xlink:href="#path-9mx2wu4yxgw-1" x="0" y="0" stroke="#bbddff">
      <animateMotion begin="-5.4698472310129524s" dur="6.9930069930069925s" keyPoints="1;0" keyTimes="0;1" repeatCount="indefinite" calcMode="linear">
        <mpath xlink:href="#path39"></mpath>
      </animateMotion>
    </use>
    <path id="path40" d="M 803.7588377047502 705.175566831501
c 0 39.46469799821796 -9.656255893180989 11.335604744168988 -20.991860637349976 11.335604744168988
S 761.7751164300503 744.640264829719 761.7751164300503 705.175566831501
s 9.656255893180989 -11.335604744168988 20.991860637349976 -11.335604744168988
S 803.7588377047502 665.710868833283 803.7588377047502 705.175566831501
z" fill="none" stroke="none"></path>
    <use xlink:href="#path-9mx2wu4yxgw-3" x="0" y="0" stroke="#bbddff">
      <animateMotion begin="-4.650148124217798s" dur="6.9930069930069925s" keyPoints="1;0" keyTimes="0;1" repeatCount="indefinite" calcMode="linear">
        <mpath xlink:href="#path40"></mpath>
      </animateMotion>
    </use>
    <path id="path41" d="M 828.4679435395084 754.272125759978
c 0 60.399280898651824 -14.778547453925444 17.348729619825523 -32.12727707375097 17.348729619825523
S 764.2133893920064 814.6714066586298 764.2133893920064 754.272125759978
s 14.778547453925444 -17.348729619825523 32.12727707375097 -17.348729619825523
S 828.4679435395084 693.8728448613263 828.4679435395084 754.272125759978
z" fill="none" stroke="none"></path>
    <use xlink:href="#path-9mx2wu4yxgw-3" x="0" y="0" stroke="#ddeeff">
      <animateMotion begin="-3.868264407517195s" dur="6.9930069930069925s" keyPoints="0;1" keyTimes="0;1" repeatCount="indefinite" calcMode="linear">
        <mpath xlink:href="#path41"></mpath>
      </animateMotion>
    </use>
    <path id="path42" d="M 838.1348872747847 628.9213580328383
c 0 33.50376409543748 -8.197729512713426 9.62342160188098 -17.821151114594404 9.62342160188098
S 802.4925850455959 662.4251221282758 802.4925850455959 628.9213580328383
s 8.197729512713426 -9.62342160188098 17.821151114594404 -9.62342160188098
S 838.1348872747847 595.4175939374007 838.1348872747847 628.9213580328383
z" fill="none" stroke="none"></path>
    <use xlink:href="#path-9mx2wu4yxgw-3" x="0" y="0" stroke="#ddeeff">
      <animateMotion begin="-5.518624893876677s" dur="6.9930069930069925s" keyPoints="1;0" keyTimes="0;1" repeatCount="indefinite" calcMode="linear">
        <mpath xlink:href="#path42"></mpath>
      </animateMotion>
    </use>
    <path id="path43" d="M 854.7789242469656 478.22591463920776
c 0 24.182603320374163 -5.917019961368146 6.946066911171303 -12.863086872539448 6.946066911171303
S 829.0527505018866 502.4085179595819 829.0527505018866 478.22591463920776
s 5.917019961368146 -6.946066911171303 12.863086872539448 -6.946066911171303
S 854.7789242469656 454.0433113188336 854.7789242469656 478.22591463920776
z" fill="none" stroke="none"></path>
    <use xlink:href="#path-9mx2wu4yxgw-2" x="0" y="0" stroke="#ddeeff">
      <animateMotion begin="-3.952722731503875s" dur="6.9930069930069925s" keyPoints="1;0" keyTimes="0;1" repeatCount="indefinite" calcMode="linear">
        <mpath xlink:href="#path43"></mpath>
      </animateMotion>
    </use>
    <path id="path44" d="M 887.1174334095729 203.49747965591732
c 0 58.3497603417686 -14.277069019794443 16.76003754497609 -31.037106564770532 16.76003754497609
S 825.0432202800318 261.8472399976859 825.0432202800318 203.49747965591732
s 14.277069019794443 -16.76003754497609 31.037106564770532 -16.76003754497609
S 887.1174334095729 145.14771931414873 887.1174334095729 203.49747965591732
z" fill="none" stroke="none"></path>
    <use xlink:href="#path-9mx2wu4yxgw-2" x="0" y="0" stroke="#bbddff">
      <animateMotion begin="-5.159046094921225s" dur="6.9930069930069925s" keyPoints="1;0" keyTimes="0;1" repeatCount="indefinite" calcMode="linear">
        <mpath xlink:href="#path44"></mpath>
      </animateMotion>
    </use>
    <path id="path45" d="M 893.0442344371457 515.434256145979
c 0 35.88530891988549 -8.780447927206023 10.30748234932881 -19.087930276534834 10.30748234932881
S 854.868373884076 551.3195650658645 854.868373884076 515.434256145979
s 8.780447927206023 -10.30748234932881 19.087930276534834 -10.30748234932881
S 893.0442344371457 479.54894722609356 893.0442344371457 515.434256145979
z" fill="none" stroke="none"></path>
    <use xlink:href="#path-9mx2wu4yxgw-2" x="0" y="0" stroke="#bbddff">
      <animateMotion begin="-6.561125345339245s" dur="6.9930069930069925s" keyPoints="0;1" keyTimes="0;1" repeatCount="indefinite" calcMode="linear">
        <mpath xlink:href="#path45"></mpath>
      </animateMotion>
    </use>
    <path id="path46" d="M 904.9117596548556 903.7064838173765
c 0 29.297292461709553 -7.168486453397018 8.415179749639979 -15.583666203036996 8.415179749639979
S 873.7444272487817 933.003776279086 873.7444272487817 903.7064838173765
s 7.168486453397018 -8.415179749639979 15.583666203036996 -8.415179749639979
S 904.9117596548556 874.409191355667 904.9117596548556 903.7064838173765
z" fill="none" stroke="none"></path>
    <use xlink:href="#path-9mx2wu4yxgw-3" x="0" y="0" stroke="#ddeeff">
      <animateMotion begin="-2.794414139939301s" dur="6.9930069930069925s" keyPoints="0;1" keyTimes="0;1" repeatCount="indefinite" calcMode="linear">
        <mpath xlink:href="#path46"></mpath>
      </animateMotion>
    </use>
    <path id="path47" d="M 933.4884486400023 197.67414723768815
c 0 28.621771570632717 -7.00319942685694 8.221147153266845 -15.224346580123784 8.221147153266845
S 903.0397554797547 226.29591880832086 903.0397554797547 197.67414723768815
s 7.00319942685694 -8.221147153266845 15.224346580123784 -8.221147153266845
S 933.4884486400023 169.05237566705543 933.4884486400023 197.67414723768815
z" fill="none" stroke="none"></path>
    <use xlink:href="#path-9mx2wu4yxgw-2" x="0" y="0" stroke="#bbddff">
      <animateMotion begin="-2.052163019542569s" dur="6.9930069930069925s" keyPoints="0;1" keyTimes="0;1" repeatCount="indefinite" calcMode="linear">
        <mpath xlink:href="#path47"></mpath>
      </animateMotion>
    </use>
    <path id="path48" d="M 942.2574734467007 461.5535756105027
c 0 28.84537903213281 -7.057911890841006 8.285374828378574 -15.34328671921958 8.285374828378574
S 911.5709000082616 490.39895464263554 911.5709000082616 461.5535756105027
s 7.057911890841006 -8.285374828378574 15.34328671921958 -8.285374828378574
S 942.2574734467007 432.7081965783699 942.2574734467007 461.5535756105027
z" fill="none" stroke="none"></path>
    <use xlink:href="#path-9mx2wu4yxgw-3" x="0" y="0" stroke="#0b25d5">
      <animateMotion begin="-1.2848590305124676s" dur="6.9930069930069925s" keyPoints="1;0" keyTimes="0;1" repeatCount="indefinite" calcMode="linear">
        <mpath xlink:href="#path48"></mpath>
      </animateMotion>
    </use>
    <path id="path49" d="M 976.8773239881572 56.532444589726055
c 0 57.94274033306034 -14.1774790176637 16.64312754247478 -30.82060656013848 16.64312754247478
S 915.2361108678803 114.4751849227864 915.2361108678803 56.532444589726055
s 14.1774790176637 -16.64312754247478 30.82060656013848 -16.64312754247478
S 976.8773239881572 -1.410295743334288 976.8773239881572 56.532444589726055
z" fill="none" stroke="none"></path>
    <use xlink:href="#path-9mx2wu4yxgw-2" x="0" y="0" stroke="#bbddff">
      <animateMotion begin="-2.436006670811138s" dur="6.9930069930069925s" keyPoints="1;0" keyTimes="0;1" repeatCount="indefinite" calcMode="linear">
        <mpath xlink:href="#path49"></mpath>
      </animateMotion>
    </use>
    <path id="path50" d="M 992.3127991912128 465.228446802368
c 0 35.287302954395386 -8.634127318628659 10.135714678390165 -18.769841997018823 10.135714678390165
S 954.7731151971751 500.5157497567634 954.7731151971751 465.228446802368
s 8.634127318628659 -10.135714678390165 18.769841997018823 -10.135714678390165
S 992.3127991912128 429.9411438479726 992.3127991912128 465.228446802368
z" fill="none" stroke="none"></path>
    <use xlink:href="#path-9mx2wu4yxgw-1" x="0" y="0" stroke="#0b25d5">
      <animateMotion begin="-3.3891661951298655s" dur="6.9930069930069925s" keyPoints="1;0" keyTimes="0;1" repeatCount="indefinite" calcMode="linear">
        <mpath xlink:href="#path50"></mpath>
      </animateMotion>
    </use>
    <path id="path51" d="M 1020.8552779076255 705.0488972680445
c 0 59.498840939798676 -14.558227038461377 17.090092610367705 -31.64831964882908 17.090092610367705
S 957.5586386099673 764.5477382078432 957.5586386099673 705.0488972680445
s 14.558227038461377 -17.090092610367705 31.64831964882908 -17.090092610367705
S 1020.8552779076255 645.5500563282458 1020.8552779076255 705.0488972680445
z" fill="none" stroke="none"></path>
    <use xlink:href="#path-9mx2wu4yxgw-3" x="0" y="0" stroke="#0b25d5">
      <animateMotion begin="-6.193099224400529s" dur="6.9930069930069925s" keyPoints="0;1" keyTimes="0;1" repeatCount="indefinite" calcMode="linear">
        <mpath xlink:href="#path51"></mpath>
      </animateMotion>
    </use>
    <path id="path52" d="M 1038.6046094348756 965.1601480477898
c 0 56.172210785322285 -13.744264341089494 16.134571183018103 -29.8788355241076 16.134571183018103
S 978.8469383866604 1021.332358833112 978.8469383866604 965.1601480477898
s 13.744264341089494 -16.134571183018103 29.8788355241076 -16.134571183018103
S 1038.6046094348756 908.9879372624675 1038.6046094348756 965.1601480477898
z" fill="none" stroke="none"></path>
    <use xlink:href="#path-9mx2wu4yxgw-3" x="0" y="0" stroke="#bbddff">
      <animateMotion begin="-2.7213188569898494s" dur="6.9930069930069925s" keyPoints="0;1" keyTimes="0;1" repeatCount="indefinite" calcMode="linear">
        <mpath xlink:href="#path52"></mpath>
      </animateMotion>
    </use>
    <path id="path53" d="M 1032.0024440630891 65.73367071160402
c 0 19.98981744226193 -4.891125544383238 5.741756073841192 -10.632881618224431 5.741756073841192
S 1010.7366808266402 85.72348815386596 1010.7366808266402 65.73367071160402
s 4.891125544383238 -5.741756073841192 10.632881618224431 -5.741756073841192
S 1032.0024440630891 45.74385326934209 1032.0024440630891 65.73367071160402
z" fill="none" stroke="none"></path>
    <use xlink:href="#path-9mx2wu4yxgw-2" x="0" y="0" stroke="#bbddff">
      <animateMotion begin="-1.6295206031016785s" dur="6.9930069930069925s" keyPoints="0;1" keyTimes="0;1" repeatCount="indefinite" calcMode="linear">
        <mpath xlink:href="#path53"></mpath>
      </animateMotion>
    </use>
    <path id="path54" d="M 1063.5740642203352 624.1748627828738
c 0 50.267512402257005 -12.299497715445863 14.43854079639297 -26.738038511838834 14.43854079639297
S 1010.0979871966576 674.4423751851308 1010.0979871966576 624.1748627828738
s 12.299497715445863 -14.43854079639297 26.738038511838834 -14.43854079639297
S 1063.5740642203352 573.9073503806168 1063.5740642203352 624.1748627828738
z" fill="none" stroke="none"></path>
    <use xlink:href="#path-9mx2wu4yxgw-2" x="0" y="0" stroke="#ddeeff">
      <animateMotion begin="-3.24133348429191s" dur="6.9930069930069925s" keyPoints="1;0" keyTimes="0;1" repeatCount="indefinite" calcMode="linear">
        <mpath xlink:href="#path54"></mpath>
      </animateMotion>
    </use>
    <path id="path55" d="M 1079.7465856446872 219.02763375023542
c 0 25.581471157069902 -6.259296134176678 7.347869374903057 -13.607165509079735 7.347869374903057
S 1052.5322546265277 244.60910490730532 1052.5322546265277 219.02763375023542
s 6.259296134176678 -7.347869374903057 13.607165509079735 -7.347869374903057
S 1079.7465856446872 193.44616259316552 1079.7465856446872 219.02763375023542
z" fill="none" stroke="none"></path>
    <use xlink:href="#path-9mx2wu4yxgw-1" x="0" y="0" stroke="#ddeeff">
      <animateMotion begin="-3.7406611291933123s" dur="6.9930069930069925s" keyPoints="0;1" keyTimes="0;1" repeatCount="indefinite" calcMode="linear">
        <mpath xlink:href="#path55"></mpath>
      </animateMotion>
    </use>
    <path id="path56" d="M 1114.0662523655221 288.6206726579898
c 0 58.6728329629932 -14.356118703711099 16.852835000008685 -31.208953703719786 16.852835000008685
S 1051.6483449580826 347.293505620983 1051.6483449580826 288.6206726579898
s 14.356118703711099 -16.852835000008685 31.208953703719786 -16.852835000008685
S 1114.0662523655221 229.94783969499662 1114.0662523655221 288.6206726579898
z" fill="none" stroke="none"></path>
    <use xlink:href="#path-9mx2wu4yxgw-1" x="0" y="0" stroke="#0b25d5">
      <animateMotion begin="-2.397995438917737s" dur="6.9930069930069925s" keyPoints="1;0" keyTimes="0;1" repeatCount="indefinite" calcMode="linear">
        <mpath xlink:href="#path56"></mpath>
      </animateMotion>
    </use>
    <path id="path57" d="M 1117.6541012337364 601.9486547228033
c 0 32.60658356694057 -7.978206617442904 9.365720811780802 -17.343927429223708 9.365720811780802
S 1082.966246375289 634.5552382897439 1082.966246375289 601.9486547228033
s 7.978206617442904 -9.365720811780802 17.343927429223708 -9.365720811780802
S 1117.6541012337364 569.3420711558628 1117.6541012337364 601.9486547228033
z" fill="none" stroke="none"></path>
    <use xlink:href="#path-9mx2wu4yxgw-1" x="0" y="0" stroke="#ddeeff">
      <animateMotion begin="-1.0044467323195596s" dur="6.9930069930069925s" keyPoints="1;0" keyTimes="0;1" repeatCount="indefinite" calcMode="linear">
        <mpath xlink:href="#path57"></mpath>
      </animateMotion>
    </use>
    <path id="path58" d="M 1143.20585842898 209.12845971801036
c 0 53.32688519685539 -13.048067654549723 15.31729681186272 -28.36536446641244 15.31729681186272
S 1086.475129496155 262.45534491486575 1086.475129496155 209.12845971801036
s 13.048067654549723 -15.31729681186272 28.36536446641244 -15.31729681186272
S 1143.20585842898 155.80157452115498 1143.20585842898 209.12845971801036
z" fill="none" stroke="none"></path>
    <use xlink:href="#path-9mx2wu4yxgw-1" x="0" y="0" stroke="#bbddff">
      <animateMotion begin="-5.393579542748903s" dur="6.9930069930069925s" keyPoints="1;0" keyTimes="0;1" repeatCount="indefinite" calcMode="linear">
        <mpath xlink:href="#path58"></mpath>
      </animateMotion>
    </use>
    <path id="path59" d="M 1163.7264931621821 71.4328527709126
c 0 48.737393115030684 -11.925106826018144 13.999038447934346 -25.92414527395249 13.999038447934346
S 1111.8782026142771 120.17024588594329 1111.8782026142771 71.4328527709126
s 11.925106826018144 -13.999038447934346 25.92414527395249 -13.999038447934346
S 1163.7264931621821 22.69545965588192 1163.7264931621821 71.4328527709126
z" fill="none" stroke="none"></path>
    <use xlink:href="#path-9mx2wu4yxgw-2" x="0" y="0" stroke="#0b25d5">
      <animateMotion begin="-5.127386342462369s" dur="6.9930069930069925s" keyPoints="1;0" keyTimes="0;1" repeatCount="indefinite" calcMode="linear">
        <mpath xlink:href="#path59"></mpath>
      </animateMotion>
    </use>
    <path id="path60" d="M 1192.510157041524 1012.3254267818772
c 0 55.25157923668066 -13.51900343025165 15.870134461599765 -29.389137891851416 15.870134461599765
S 1133.7318812578214 1067.577006018558 1133.7318812578214 1012.3254267818772
s 13.51900343025165 -15.870134461599765 29.389137891851416 -15.870134461599765
S 1192.510157041524 957.0738475451966 1192.510157041524 1012.3254267818772
z" fill="none" stroke="none"></path>
    <use xlink:href="#path-9mx2wu4yxgw-1" x="0" y="0" stroke="#bbddff">
      <animateMotion begin="-1.4221435410334868s" dur="6.9930069930069925s" keyPoints="1;0" keyTimes="0;1" repeatCount="indefinite" calcMode="linear">
        <mpath xlink:href="#path60"></mpath>
      </animateMotion>
    </use>
    <path id="path61" d="M 1192.4141901738565 638.0271136935356
c 0 19.507178428008586 -4.773033019619121 5.603125718683318 -10.37615873830244 5.603125718683318
S 1171.6618726972517 657.5342921215442 1171.6618726972517 638.0271136935356
s 4.773033019619121 -5.603125718683318 10.37615873830244 -5.603125718683318
S 1192.4141901738565 618.519935265527 1192.4141901738565 638.0271136935356
z" fill="none" stroke="none"></path>
    <use xlink:href="#path-9mx2wu4yxgw-3" x="0" y="0" stroke="#bbddff">
      <animateMotion begin="-0.045915712673037234s" dur="6.9930069930069925s" keyPoints="0;1" keyTimes="0;1" repeatCount="indefinite" calcMode="linear">
        <mpath xlink:href="#path61"></mpath>
      </animateMotion>
    </use>
    <path id="path62" d="M 1222.6394455128827 1030.4543737845925
c 0 48.44578236852469 -11.853755260383698 13.915277914363475 -25.76903317474717 13.915277914363475
S 1171.1013791633884 1078.9001561531172 1171.1013791633884 1030.4543737845925
s 11.853755260383698 -13.915277914363475 25.76903317474717 -13.915277914363475
S 1222.6394455128827 982.0085914160678 1222.6394455128827 1030.4543737845925
z" fill="none" stroke="none"></path>
    <use xlink:href="#path-9mx2wu4yxgw-1" x="0" y="0" stroke="#bbddff">
      <animateMotion begin="-6.13460566672254s" dur="6.9930069930069925s" keyPoints="0;1" keyTimes="0;1" repeatCount="indefinite" calcMode="linear">
        <mpath xlink:href="#path62"></mpath>
      </animateMotion>
    </use>
    <path id="path63" d="M 1244.7522630240549 151.40652314766467
c 0 47.52229093473352 -11.627794590413519 13.650019736572393 -25.27781432698591 13.650019736572393
S 1194.196634370083 198.9288140823982 1194.196634370083 151.40652314766467
s 11.627794590413519 -13.650019736572393 25.27781432698591 -13.650019736572393
S 1244.7522630240549 103.88423221293115 1244.7522630240549 151.40652314766467
z" fill="none" stroke="none"></path>
    <use xlink:href="#path-9mx2wu4yxgw-1" x="0" y="0" stroke="#ddeeff">
      <animateMotion begin="-1.970434497743229s" dur="6.9930069930069925s" keyPoints="0;1" keyTimes="0;1" repeatCount="indefinite" calcMode="linear">
        <mpath xlink:href="#path63"></mpath>
      </animateMotion>
    </use>
    <path id="path64" d="M 1255.657485404376 279.56078529540724
c 0 33.76248380396126 -8.26103327118201 9.697734709648447 -17.95876798083046 9.697734709648447
S 1219.739949442715 313.32326909936853 1219.739949442715 279.56078529540724
s 8.26103327118201 -9.697734709648447 17.95876798083046 -9.697734709648447
S 1255.657485404376 245.79830149144598 1255.657485404376 279.56078529540724
z" fill="none" stroke="none"></path>
    <use xlink:href="#path-9mx2wu4yxgw-1" x="0" y="0" stroke="#0b25d5">
      <animateMotion begin="-2.5269650958616716s" dur="6.9930069930069925s" keyPoints="0;1" keyTimes="0;1" repeatCount="indefinite" calcMode="linear">
        <mpath xlink:href="#path64"></mpath>
      </animateMotion>
    </use>
    <path id="path65" d="M 1260.173362251867 979.6941741457326
c 0 20.96370742198241 -5.12941777346378 6.0214904297183525 -11.150908203182134 6.0214904297183525
S 1237.8715458455029 1000.6578815677151 1237.8715458455029 979.6941741457326
s 5.12941777346378 -6.0214904297183525 11.150908203182134 -6.0214904297183525
S 1260.173362251867 958.7304667237502 1260.173362251867 979.6941741457326
z" fill="none" stroke="none"></path>
    <use xlink:href="#path-9mx2wu4yxgw-1" x="0" y="0" stroke="#0b25d5">
      <animateMotion begin="-1.2509155357120085s" dur="6.9930069930069925s" keyPoints="0;1" keyTimes="0;1" repeatCount="indefinite" calcMode="linear">
        <mpath xlink:href="#path65"></mpath>
      </animateMotion>
    </use>
    <path id="path66" d="M 1298.5982719574893 607.2037638403407
c 0 56.322457470037946 -13.78102682777524 16.177727145649197 -29.958753973424436 16.177727145649197
S 1238.6807640106406 663.5262213103787 1238.6807640106406 607.2037638403407
s 13.78102682777524 -16.177727145649197 29.958753973424436 -16.177727145649197
S 1298.5982719574893 550.8813063703027 1298.5982719574893 607.2037638403407
z" fill="none" stroke="none"></path>
    <use xlink:href="#path-9mx2wu4yxgw-2" x="0" y="0" stroke="#ddeeff">
      <animateMotion begin="-3.4619103919400596s" dur="6.9930069930069925s" keyPoints="0;1" keyTimes="0;1" repeatCount="indefinite" calcMode="linear">
        <mpath xlink:href="#path66"></mpath>
      </animateMotion>
    </use>
    <path id="path67" d="M 1302.2796129737897 307.25554289705565
c 0 27.379150462403345 -6.699153836545499 7.864224068988196 -14.563377905533695 7.864224068988196
S 1273.152857162722 334.634693359459 1273.152857162722 307.25554289705565
s 6.699153836545499 -7.864224068988196 14.563377905533695 -7.864224068988196
S 1302.2796129737897 279.8763924346523 1302.2796129737897 307.25554289705565
z" fill="none" stroke="none"></path>
    <use xlink:href="#path-9mx2wu4yxgw-2" x="0" y="0" stroke="#0b25d5">
      <animateMotion begin="-0.0013797987933227385s" dur="6.9930069930069925s" keyPoints="1;0" keyTimes="0;1" repeatCount="indefinite" calcMode="linear">
        <mpath xlink:href="#path67"></mpath>
      </animateMotion>
    </use>
    <path id="path68" d="M 1336.541394043711 1048.4112427738348
c 0 52.74757037559077 -12.906320411048803 15.150897873839902 -28.057218284888705 15.150897873839902
S 1280.4269574739337 1101.1588131494257 1280.4269574739337 1048.4112427738348
s 12.906320411048803 -15.150897873839902 28.057218284888705 -15.150897873839902
S 1336.541394043711 995.6636723982441 1336.541394043711 1048.4112427738348
z" fill="none" stroke="none"></path>
    <use xlink:href="#path-9mx2wu4yxgw-2" x="0" y="0" stroke="#0b25d5">
      <animateMotion begin="-6.158301156664898s" dur="6.9930069930069925s" keyPoints="1;0" keyTimes="0;1" repeatCount="indefinite" calcMode="linear">
        <mpath xlink:href="#path68"></mpath>
      </animateMotion>
    </use>
    <path id="path69" d="M 1345.9886893620226 1025.7723416821318
c 0 52.07506845521056 -12.741772068828114 14.957732428624311 -27.699504497452423 14.957732428624311
S 1290.5896803671178 1077.8474101373424 1290.5896803671178 1025.7723416821318
s 12.741772068828114 -14.957732428624311 27.699504497452423 -14.957732428624311
S 1345.9886893620226 973.6972732269212 1345.9886893620226 1025.7723416821318
z" fill="none" stroke="none"></path>
    <use xlink:href="#path-9mx2wu4yxgw-2" x="0" y="0" stroke="#0b25d5">
      <animateMotion begin="-6.901586483868538s" dur="6.9930069930069925s" keyPoints="1;0" keyTimes="0;1" repeatCount="indefinite" calcMode="linear">
        <mpath xlink:href="#path69"></mpath>
      </animateMotion>
    </use>
    <path id="path70" d="M 1364.9216921939474 358.3426936504109
c 0 47.28345022738491 -11.569354842870776 13.58141655467439 -25.150771397545167 13.58141655467439
S 1314.620149398857 405.6261438777958 1314.620149398857 358.3426936504109
s 11.569354842870776 -13.58141655467439 25.150771397545167 -13.58141655467439
S 1364.9216921939474 311.05924342302603 1364.9216921939474 358.3426936504109
z" fill="none" stroke="none"></path>
    <use xlink:href="#path-9mx2wu4yxgw-1" x="0" y="0" stroke="#bbddff">
      <animateMotion begin="-2.978387076871462s" dur="6.9930069930069925s" keyPoints="1;0" keyTimes="0;1" repeatCount="indefinite" calcMode="linear">
        <mpath xlink:href="#path70"></mpath>
      </animateMotion>
    </use>
    <path id="path71" d="M 1392.2713459755398 952.3409715525837
c 0 63.848166000034645 -15.622423595753157 18.339366829797186 -33.96179042555034 18.339366829797186
S 1324.347765124439 1016.1891375526184 1324.347765124439 952.3409715525837
s 15.622423595753157 -18.339366829797186 33.96179042555034 -18.339366829797186
S 1392.2713459755398 888.492805552549 1392.2713459755398 952.3409715525837
z" fill="none" stroke="none"></path>
    <use xlink:href="#path-9mx2wu4yxgw-1" x="0" y="0" stroke="#0b25d5">
      <animateMotion begin="-1.5867602290458818s" dur="6.9930069930069925s" keyPoints="1;0" keyTimes="0;1" repeatCount="indefinite" calcMode="linear">
        <mpath xlink:href="#path71"></mpath>
      </animateMotion>
    </use>
    <path id="path72" d="M 1411.4733122101027 625.5594119620795
c 0 50.43021842625037 -12.33930876386977 14.485275505412341 -26.82458426928211 14.485275505412341
S 1357.8241436715386 675.9896303883298 1357.8241436715386 625.5594119620795
s 12.33930876386977 -14.485275505412341 26.82458426928211 -14.485275505412341
S 1411.4733122101027 575.1291935358291 1411.4733122101027 625.5594119620795
z" fill="none" stroke="none"></path>
    <use xlink:href="#path-9mx2wu4yxgw-2" x="0" y="0" stroke="#bbddff">
      <animateMotion begin="-4.440972469059628s" dur="6.9930069930069925s" keyPoints="1;0" keyTimes="0;1" repeatCount="indefinite" calcMode="linear">
        <mpath xlink:href="#path72"></mpath>
      </animateMotion>
    </use>
    <path id="path73" d="M 1428.290117690664 658.791364567845
c 0 33.04408595260547 -8.085255073509849 9.491386390641997 -17.576641464151844 9.491386390641997
S 1393.1368347623602 691.8354505204504 1393.1368347623602 658.791364567845
s 8.085255073509849 -9.491386390641997 17.576641464151844 -9.491386390641997
S 1428.290117690664 625.7472786152396 1428.290117690664 658.791364567845
z" fill="none" stroke="none"></path>
    <use xlink:href="#path-9mx2wu4yxgw-3" x="0" y="0" stroke="#0b25d5">
      <animateMotion begin="-1.2680088825002491s" dur="6.9930069930069925s" keyPoints="1;0" keyTimes="0;1" repeatCount="indefinite" calcMode="linear">
        <mpath xlink:href="#path73"></mpath>
      </animateMotion>
    </use>
    <path id="path74" d="M 1454.5032120003812 613.1037723036102
c 0 47.19827606417267 -11.548514356127354 13.556951635453853 -25.105465991581205 13.556951635453853
S 1404.2922800172187 660.3020483677828 1404.2922800172187 613.1037723036102
s 11.548514356127354 -13.556951635453853 25.105465991581205 -13.556951635453853
S 1454.5032120003812 565.9054962394375 1454.5032120003812 613.1037723036102
z" fill="none" stroke="none"></path>
    <use xlink:href="#path-9mx2wu4yxgw-3" x="0" y="0" stroke="#bbddff">
      <animateMotion begin="-1.4756135317836123s" dur="6.9930069930069925s" keyPoints="0;1" keyTimes="0;1" repeatCount="indefinite" calcMode="linear">
        <mpath xlink:href="#path74"></mpath>
      </animateMotion>
    </use>
    <path id="path75" d="M 1461.3557182496268 569.71167978357
c 0 42.33961175784884 -10.359692238622587 12.161377845339562 -22.52107008396215 12.161377845339562
S 1416.3135780817026 612.0512915414189 1416.3135780817026 569.71167978357
s 10.359692238622587 -12.161377845339562 22.52107008396215 -12.161377845339562
S 1461.3557182496268 527.3720680257212 1461.3557182496268 569.71167978357
z" fill="none" stroke="none"></path>
    <use xlink:href="#path-9mx2wu4yxgw-1" x="0" y="0" stroke="#bbddff">
      <animateMotion begin="-3.9957303268217967s" dur="6.9930069930069925s" keyPoints="1;0" keyTimes="0;1" repeatCount="indefinite" calcMode="linear">
        <mpath xlink:href="#path75"></mpath>
      </animateMotion>
    </use>
    <path id="path76" d="M 1483.7245986693238 990.0170262619653
c 0 54.40980497981678 -13.313037388678573 15.628348238883545 -28.941385627562116 15.628348238883545
S 1425.8418274141995 1044.426831241782 1425.8418274141995 990.0170262619653
s 13.313037388678573 -15.628348238883545 28.941385627562116 -15.628348238883545
S 1483.7245986693238 935.6072212821484 1483.7245986693238 990.0170262619653
z" fill="none" stroke="none"></path>
    <use xlink:href="#path-9mx2wu4yxgw-2" x="0" y="0" stroke="#ddeeff">
      <animateMotion begin="-6.058169232358255s" dur="6.9930069930069925s" keyPoints="0;1" keyTimes="0;1" repeatCount="indefinite" calcMode="linear">
        <mpath xlink:href="#path76"></mpath>
      </animateMotion>
    </use>
    <path id="path77" d="M 1482.4865985530962 571.0142234562345
c 0 22.421813599434753 -5.486188433904247 6.440308161539769 -11.926496595444016 6.440308161539769
S 1458.6336053622083 593.4360370556692 1458.6336053622083 571.0142234562345
s 5.486188433904247 -6.440308161539769 11.926496595444016 -6.440308161539769
S 1482.4865985530962 548.5924098567998 1482.4865985530962 571.0142234562345
z" fill="none" stroke="none"></path>
    <use xlink:href="#path-9mx2wu4yxgw-3" x="0" y="0" stroke="#0b25d5">
      <animateMotion begin="-2.8130974634444113s" dur="6.9930069930069925s" keyPoints="1;0" keyTimes="0;1" repeatCount="indefinite" calcMode="linear">
        <mpath xlink:href="#path77"></mpath>
      </animateMotion>
    </use>
    <path id="path78" d="M 1517.0868611987369 40.99703517096654
c 0 30.01027328241374 -7.342939207399106 8.619972113033734 -15.96291132043284 8.619972113033734
S 1485.1610385578713 71.00730845338028 1485.1610385578713 40.99703517096654
s 7.342939207399106 -8.619972113033734 15.96291132043284 -8.619972113033734
S 1517.0868611987369 10.986761888552802 1517.0868611987369 40.99703517096654
z" fill="none" stroke="none"></path>
    <use xlink:href="#path-9mx2wu4yxgw-3" x="0" y="0" stroke="#0b25d5">
      <animateMotion begin="-4.894510464390793s" dur="6.9930069930069925s" keyPoints="0;1" keyTimes="0;1" repeatCount="indefinite" calcMode="linear">
        <mpath xlink:href="#path78"></mpath>
      </animateMotion>
    </use>
    <path id="path79" d="M 1519.848210050525 1057.3577214191778
c 0 24.313781380545183 -5.949116720771693 6.983745715688511 -12.932862436460205 6.983745715688511
S 1493.9824851776045 1081.671502799723 1493.9824851776045 1057.3577214191778
s 5.949116720771693 -6.983745715688511 12.932862436460205 -6.983745715688511
S 1519.848210050525 1033.0439400386326 1519.848210050525 1057.3577214191778
z" fill="none" stroke="none"></path>
    <use xlink:href="#path-9mx2wu4yxgw-2" x="0" y="0" stroke="#bbddff">
      <animateMotion begin="-6.847250992957046s" dur="6.9930069930069925s" keyPoints="0;1" keyTimes="0;1" repeatCount="indefinite" calcMode="linear">
        <mpath xlink:href="#path79"></mpath>
      </animateMotion>
    </use>
    <path id="path80" d="M 1558.1469272140246 65.35012356732675
c 0 48.343231386203655 -11.828662998751957 13.885821781143603 -25.71448477989556 13.885821781143603
S 1506.7179576542333 113.6933549535304 1506.7179576542333 65.35012356732675
s 11.828662998751957 -13.885821781143603 25.71448477989556 -13.885821781143603
S 1558.1469272140246 17.006892181123092 1558.1469272140246 65.35012356732675
z" fill="none" stroke="none"></path>
    <use xlink:href="#path-9mx2wu4yxgw-1" x="0" y="0" stroke="#ddeeff">
      <animateMotion begin="-4.4229213138126395s" dur="6.9930069930069925s" keyPoints="0;1" keyTimes="0;1" repeatCount="indefinite" calcMode="linear">
        <mpath xlink:href="#path80"></mpath>
      </animateMotion>
    </use>
    <path id="path81" d="M 1569.9909915326618 205.40176753944075
c 0 50.78274026339282 -12.425564107000369 14.586531777783042 -27.012095884783413 14.586531777783042
S 1515.9667997630952 256.1845078028336 1515.9667997630952 205.40176753944075
s 12.425564107000369 -14.586531777783042 27.012095884783413 -14.586531777783042
S 1569.9909915326618 154.61902727604794 1569.9909915326618 205.40176753944075
z" fill="none" stroke="none"></path>
    <use xlink:href="#path-9mx2wu4yxgw-3" x="0" y="0" stroke="#bbddff">
      <animateMotion begin="-2.3067761618997427s" dur="6.9930069930069925s" keyPoints="0;1" keyTimes="0;1" repeatCount="indefinite" calcMode="linear">
        <mpath xlink:href="#path81"></mpath>
      </animateMotion>
    </use>
    <path id="path82" d="M 1595.039893884328 331.9121106361745
c 0 40.68147062858528 -9.95397685593044 11.685103265657474 -21.639080121587916 11.685103265657474
S 1551.761733641152 372.59358126475973 1551.761733641152 331.9121106361745
s 9.95397685593044 -11.685103265657474 21.639080121587916 -11.685103265657474
S 1595.039893884328 291.2306400075892 1595.039893884328 331.9121106361745
z" fill="none" stroke="none"></path>
    <use xlink:href="#path-9mx2wu4yxgw-3" x="0" y="0" stroke="#0b25d5">
      <animateMotion begin="-6.478171096114681s" dur="6.9930069930069925s" keyPoints="0;1" keyTimes="0;1" repeatCount="indefinite" calcMode="linear">
        <mpath xlink:href="#path82"></mpath>
      </animateMotion>
    </use>
    <path id="path83" d="M 1611.3858024345222 286.7074470944427
c 0 33.627605494605035 -8.228031131658678 9.658993067599319 -17.887024199257997 9.658993067599319
S 1575.6117540360065 320.3350525890478 1575.6117540360065 286.7074470944427
s 8.228031131658678 -9.658993067599319 17.887024199257997 -9.658993067599319
S 1611.3858024345222 253.0798415998377 1611.3858024345222 286.7074470944427
z" fill="none" stroke="none"></path>
    <use xlink:href="#path-9mx2wu4yxgw-2" x="0" y="0" stroke="#0b25d5">
      <animateMotion begin="-6.791276494510229s" dur="6.9930069930069925s" keyPoints="1;0" keyTimes="0;1" repeatCount="indefinite" calcMode="linear">
        <mpath xlink:href="#path83"></mpath>
      </animateMotion>
    </use>
    <path id="path84" d="M 1638.7714972050535 464.00133333028447
c 0 59.69246129338571 -14.605602231360331 17.145706967249087 -31.75130919860942 17.145706967249087
S 1575.2688788078349 523.6937946236702 1575.2688788078349 464.00133333028447
s 14.605602231360331 -17.145706967249087 31.75130919860942 -17.145706967249087
S 1638.7714972050535 404.3088720368988 1638.7714972050535 464.00133333028447
z" fill="none" stroke="none"></path>
    <use xlink:href="#path-9mx2wu4yxgw-1" x="0" y="0" stroke="#0b25d5">
      <animateMotion begin="-6.134209303964213s" dur="6.9930069930069925s" keyPoints="1;0" keyTimes="0;1" repeatCount="indefinite" calcMode="linear">
        <mpath xlink:href="#path84"></mpath>
      </animateMotion>
    </use>
    <path id="path85" d="M 1645.1905469910826 648.5860259770924
c 0 40.762901715804524 -9.973901483654299 11.70849304602896 -21.682394529683258 11.70849304602896
S 1601.825757931716 689.348927692897 1601.825757931716 648.5860259770924
s 9.973901483654299 -11.70849304602896 21.682394529683258 -11.70849304602896
S 1645.1905469910826 607.8231242612878 1645.1905469910826 648.5860259770924
z" fill="none" stroke="none"></path>
    <use xlink:href="#path-9mx2wu4yxgw-1" x="0" y="0" stroke="#bbddff">
      <animateMotion begin="-3.937117211023811s" dur="6.9930069930069925s" keyPoints="0;1" keyTimes="0;1" repeatCount="indefinite" calcMode="linear">
        <mpath xlink:href="#path85"></mpath>
      </animateMotion>
    </use>
    <path id="path86" d="M 1664.5049015496054 744.9883285778243
c 0 42.51847957957147 -10.403457769469613 12.212754772855634 -22.616212542325247 12.212754772855634
S 1619.272476464955 787.5068081573958 1619.272476464955 744.9883285778243
s 10.403457769469613 -12.212754772855634 22.616212542325247 -12.212754772855634
S 1664.5049015496054 702.4698489982528 1664.5049015496054 744.9883285778243
z" fill="none" stroke="none"></path>
    <use xlink:href="#path-9mx2wu4yxgw-1" x="0" y="0" stroke="#bbddff">
      <animateMotion begin="-0.11689989750422686s" dur="6.9930069930069925s" keyPoints="0;1" keyTimes="0;1" repeatCount="indefinite" calcMode="linear">
        <mpath xlink:href="#path86"></mpath>
      </animateMotion>
    </use>
    <path id="path87" d="M 1688.4865828584882 515.3283399887828
c 0 36.430824165939576 -8.913925061878832 10.464172898727325 -19.37809796060616 10.464172898727325
S 1649.730386937276 551.7591641547224 1649.730386937276 515.3283399887828
s 8.913925061878832 -10.464172898727325 19.37809796060616 -10.464172898727325
S 1688.4865828584882 478.8975158228432 1688.4865828584882 515.3283399887828
z" fill="none" stroke="none"></path>
    <use xlink:href="#path-9mx2wu4yxgw-2" x="0" y="0" stroke="#0b25d5">
      <animateMotion begin="-3.178255751051099s" dur="6.9930069930069925s" keyPoints="0;1" keyTimes="0;1" repeatCount="indefinite" calcMode="linear">
        <mpath xlink:href="#path87"></mpath>
      </animateMotion>
    </use>
    <path id="path88" d="M 1698.843239527281 677.4084478360556
c 0 26.302470925365895 -6.435710971100165 7.55496505303063 -13.990676024130796 7.55496505303063
S 1670.8618874790193 703.7109187614216 1670.8618874790193 677.4084478360556
s 6.435710971100165 -7.55496505303063 13.990676024130796 -7.55496505303063
S 1698.843239527281 651.1059769106897 1698.843239527281 677.4084478360556
z" fill="none" stroke="none"></path>
    <use xlink:href="#path-9mx2wu4yxgw-2" x="0" y="0" stroke="#ddeeff">
      <animateMotion begin="-5.86614670626564s" dur="6.9930069930069925s" keyPoints="1;0" keyTimes="0;1" repeatCount="indefinite" calcMode="linear">
        <mpath xlink:href="#path88"></mpath>
      </animateMotion>
    </use>
    <path id="path89" d="M 1718.0567838802938 874.6213084794676
c 0 32.38164609012323 -7.923168724179088 9.301111110992844 -17.22427983517193 9.301111110992844
S 1683.6082242099499 907.0029545695909 1683.6082242099499 874.6213084794676
s 7.923168724179088 -9.301111110992844 17.22427983517193 -9.301111110992844
S 1718.0567838802938 842.2396623893444 1718.0567838802938 874.6213084794676
z" fill="none" stroke="none"></path>
    <use xlink:href="#path-9mx2wu4yxgw-3" x="0" y="0" stroke="#ddeeff">
      <animateMotion begin="-1.7775467145143482s" dur="6.9930069930069925s" keyPoints="1;0" keyTimes="0;1" repeatCount="indefinite" calcMode="linear">
        <mpath xlink:href="#path89"></mpath>
      </animateMotion>
    </use>
    <path id="path90" d="M 1748.280595368517 983.0390377164355
c 0 34.23360203927198 -8.376306881949526 9.833055904897272 -18.209362786846796 9.833055904897272
S 1711.8618697948232 1017.2726397557075 1711.8618697948232 983.0390377164355
s 8.376306881949526 -9.833055904897272 18.209362786846796 -9.833055904897272
S 1748.280595368517 948.8054356771635 1748.280595368517 983.0390377164355
z" fill="none" stroke="none"></path>
    <use xlink:href="#path-9mx2wu4yxgw-2" x="0" y="0" stroke="#0b25d5">
      <animateMotion begin="-5.407544857216263s" dur="6.9930069930069925s" keyPoints="1;0" keyTimes="0;1" repeatCount="indefinite" calcMode="linear">
        <mpath xlink:href="#path90"></mpath>
      </animateMotion>
    </use>
    <path id="path91" d="M 1757.304656025645 870.3949270928888
c 0 20.15897488877388 -4.932515132359566 5.790343851030796 -10.722858983390362 5.790343851030796
S 1735.8589380588644 890.5539019816626 1735.8589380588644 870.3949270928888
s 4.932515132359566 -5.790343851030796 10.722858983390362 -5.790343851030796
S 1757.304656025645 850.2359522041149 1757.304656025645 870.3949270928888
z" fill="none" stroke="none"></path>
    <use xlink:href="#path-9mx2wu4yxgw-3" x="0" y="0" stroke="#bbddff">
      <animateMotion begin="-5.842864074292737s" dur="6.9930069930069925s" keyPoints="0;1" keyTimes="0;1" repeatCount="indefinite" calcMode="linear">
        <mpath xlink:href="#path91"></mpath>
      </animateMotion>
    </use>
    <path id="path92" d="M 1786.5212640354416 363.79357853983305
c 0 64.14965423017867 -15.696191992490522 18.42596451292366 -34.12215650541418 18.42596451292366
S 1718.276951024613 427.9432327700117 1718.276951024613 363.79357853983305
s 15.696191992490522 -18.42596451292366 34.12215650541418 -18.42596451292366
S 1786.5212640354416 299.6439243096544 1786.5212640354416 363.79357853983305
z" fill="none" stroke="none"></path>
    <use xlink:href="#path-9mx2wu4yxgw-1" x="0" y="0" stroke="#0b25d5">
      <animateMotion begin="-6.8932217117085s" dur="6.9930069930069925s" keyPoints="1;0" keyTimes="0;1" repeatCount="indefinite" calcMode="linear">
        <mpath xlink:href="#path92"></mpath>
      </animateMotion>
    </use>
    <path id="path93" d="M 1792.826077807349 84.39264974150362
c 0 40.041271162764666 -9.797332305782842 11.501216185049426 -21.298548490832268 11.501216185049426
S 1750.2289808256846 124.43392090426829 1750.2289808256846 84.39264974150362
s 9.797332305782842 -11.501216185049426 21.298548490832268 -11.501216185049426
S 1792.826077807349 44.35137857873895 1792.826077807349 84.39264974150362
z" fill="none" stroke="none"></path>
    <use xlink:href="#path-9mx2wu4yxgw-2" x="0" y="0" stroke="#0b25d5">
      <animateMotion begin="-0.9421042007836518s" dur="6.9930069930069925s" keyPoints="1;0" keyTimes="0;1" repeatCount="indefinite" calcMode="linear">
        <mpath xlink:href="#path93"></mpath>
      </animateMotion>
    </use>
    <path id="path94" d="M 1823.889795515861 778.6289656742221
c 0 60.53516777910277 -14.811796371482592 17.387760957827393 -32.19955732930998 17.387760957827393
S 1759.490680857241 839.1641334533248 1759.490680857241 778.6289656742221
s 14.811796371482592 -17.387760957827393 32.19955732930998 -17.387760957827393
S 1823.889795515861 718.0937978951193 1823.889795515861 778.6289656742221
z" fill="none" stroke="none"></path>
    <use xlink:href="#path-9mx2wu4yxgw-3" x="0" y="0" stroke="#ddeeff">
      <animateMotion begin="-5.024684247759087s" dur="6.9930069930069925s" keyPoints="0;1" keyTimes="0;1" repeatCount="indefinite" calcMode="linear">
        <mpath xlink:href="#path94"></mpath>
      </animateMotion>
    </use>
    <path id="path95" d="M 1841.6139158673623 530.0835065488038
c 0 64.82001347661055 -15.860216063425986 18.618514509239205 -34.47873057266519 18.618514509239205
S 1772.6564547220319 594.9035200254144 1772.6564547220319 530.0835065488038
s 15.860216063425986 -18.618514509239205 34.47873057266519 -18.618514509239205
S 1841.6139158673623 465.2634930721933 1841.6139158673623 530.0835065488038
z" fill="none" stroke="none"></path>
    <use xlink:href="#path-9mx2wu4yxgw-3" x="0" y="0" stroke="#bbddff">
      <animateMotion begin="-0.2773491174841702s" dur="6.9930069930069925s" keyPoints="1;0" keyTimes="0;1" repeatCount="indefinite" calcMode="linear">
        <mpath xlink:href="#path95"></mpath>
      </animateMotion>
    </use>
    <path id="path96" d="M 1856.3223423631996 171.51450646827763
c 0 29.98661291179191 -7.3371499677788705 8.613176049131718 -15.95032601691059 8.613176049131718
S 1824.4216903293784 201.50111938006955 1824.4216903293784 171.51450646827763
s 7.3371499677788705 -8.613176049131718 15.95032601691059 -8.613176049131718
S 1856.3223423631996 141.5278935564857 1856.3223423631996 171.51450646827763
z" fill="none" stroke="none"></path>
    <use xlink:href="#path-9mx2wu4yxgw-2" x="0" y="0" stroke="#ddeeff">
      <animateMotion begin="-0.07150209100322816s" dur="6.9930069930069925s" keyPoints="1;0" keyTimes="0;1" repeatCount="indefinite" calcMode="linear">
        <mpath xlink:href="#path96"></mpath>
      </animateMotion>
    </use>
    <path id="path97" d="M 1878.688005220309 527.868199439231
c 0 64.32697988972264 -15.739580185783197 18.476898478962884 -34.216478664746084 18.476898478962884
S 1810.2550478908167 592.1951793289537 1810.2550478908167 527.868199439231
s 15.739580185783197 -18.476898478962884 34.216478664746084 -18.476898478962884
S 1878.688005220309 463.5412195495084 1878.688005220309 527.868199439231
z" fill="none" stroke="none"></path>
    <use xlink:href="#path-9mx2wu4yxgw-2" x="0" y="0" stroke="#ddeeff">
      <animateMotion begin="-1.2414934521215906s" dur="6.9930069930069925s" keyPoints="1;0" keyTimes="0;1" repeatCount="indefinite" calcMode="linear">
        <mpath xlink:href="#path97"></mpath>
      </animateMotion>
    </use>
    <path id="path98" d="M 1887.2797106809446 876.5794326956943
c 0 26.39404522824928 -6.458117449465249 7.581268310241815 -14.039385759707063 7.581268310241815
S 1859.2009391615304 902.9734779239436 1859.2009391615304 876.5794326956943
s 6.458117449465249 -7.581268310241815 14.039385759707063 -7.581268310241815
S 1887.2797106809446 850.185387467445 1887.2797106809446 876.5794326956943
z" fill="none" stroke="none"></path>
    <use xlink:href="#path-9mx2wu4yxgw-3" x="0" y="0" stroke="#bbddff">
      <animateMotion begin="-4.438794095616815s" dur="6.9930069930069925s" keyPoints="1;0" keyTimes="0;1" repeatCount="indefinite" calcMode="linear">
        <mpath xlink:href="#path98"></mpath>
      </animateMotion>
    </use>
    <path id="path99" d="M 1910.5876615873256 705.1526652909288
c 0 52.5150240245979 -12.84942077197608 15.084102645363226 -27.933523417339305 15.084102645363226
S 1854.720614752647 757.6676893155267 1854.720614752647 705.1526652909288
s 12.84942077197608 -15.084102645363226 27.933523417339305 -15.084102645363226
S 1910.5876615873256 652.6376412663309 1910.5876615873256 705.1526652909288
z" fill="none" stroke="none"></path>
    <use xlink:href="#path-9mx2wu4yxgw-3" x="0" y="0" stroke="#bbddff">
      <animateMotion begin="-3.6116983179066837s" dur="6.9930069930069925s" keyPoints="1;0" keyTimes="0;1" repeatCount="indefinite" calcMode="linear">
        <mpath xlink:href="#path99"></mpath>
      </animateMotion>
    </use>
  </g>
</svg>